<svg xmlns="http://www.w3.org/2000/svg" xmlns:xlink="http://www.w3.org/1999/xlink" width="500" zoomAndPan="magnify" viewBox="0 0 375 374.999991" height="500" preserveAspectRatio="xMidYMid meet" version="1.0"><defs><g/><clipPath id="c66f85221f"><path d="M 165 33.023438 L 172 33.023438 L 172 38 L 165 38 Z M 165 33.023438 " clip-rule="nonzero"/></clipPath><clipPath id="ab07143c95"><path d="M 47.683594 118 L 57 118 L 57 129 L 47.683594 129 Z M 47.683594 118 " clip-rule="nonzero"/></clipPath><clipPath id="30754418a2"><path d="M 53 35 L 313.933594 35 L 313.933594 301.523438 L 53 301.523438 Z M 53 35 " clip-rule="nonzero"/></clipPath><clipPath id="812e464440"><path d="M 95.546875 67 L 279 67 L 279 221.25 L 95.546875 221.25 Z M 95.546875 67 " clip-rule="nonzero"/></clipPath><clipPath id="21b96249bb"><path d="M 184 109.886719 L 191 109.886719 L 191 148 L 184 148 Z M 184 109.886719 " clip-rule="nonzero"/></clipPath><clipPath id="73253b38fb"><path d="M 183 109.886719 L 191 109.886719 L 191 148 L 183 148 Z M 183 109.886719 " clip-rule="nonzero"/></clipPath></defs><path fill="#967259" d="M 151.179688 36.707031 C 151.144531 36.371094 151.085938 36.011719 150.992188 35.613281 C 150.464844 36.203125 150.648438 36.511719 151.179688 36.707031 Z M 151.179688 36.707031 " fill-opacity="1" fill-rule="nonzero"/><path fill="#967259" d="M 197.144531 35.488281 C 198.265625 35.496094 199.390625 35.503906 199.390625 35.503906 C 199.601562 35.546875 199.738281 35.570312 199.820312 35.574219 C 199.855469 35.574219 199.886719 35.566406 199.917969 35.5625 C 199.925781 35.414062 195.609375 34.160156 195.484375 35.480469 C 195.523438 35.480469 195.558594 35.480469 195.605469 35.476562 C 196.023438 35.480469 196.582031 35.484375 197.144531 35.488281 Z M 197.144531 35.488281 " fill-opacity="1" fill-rule="nonzero"/><path fill="#967259" d="M 175.585938 36.382812 C 175.070312 36.167969 174.503906 36 173.910156 35.898438 C 174.382812 36.054688 174.957031 36.21875 175.585938 36.382812 Z M 175.585938 36.382812 " fill-opacity="1" fill-rule="nonzero"/><path fill="#967259" d="M 188.035156 37.773438 C 187.160156 37.523438 186.261719 37.332031 185.332031 37.195312 C 184.542969 37.082031 183.730469 37.019531 182.902344 37.007812 C 182.078125 37.035156 181.238281 37.121094 180.382812 37.265625 C 180.382812 37.265625 180.398438 37.292969 180.417969 37.328125 C 181.601562 37.496094 182.828125 37.632812 184.078125 37.707031 C 185.398438 37.828125 186.730469 37.835938 188.035156 37.773438 Z M 188.035156 37.773438 " fill-opacity="1" fill-rule="nonzero"/><g clip-path="url(#c66f85221f)"><path fill="#967259" d="M 170.003906 36.632812 C 171.003906 36.410156 171.671875 36.261719 171.671875 36.261719 C 171.671875 36.261719 171.082031 35.449219 170.492188 34.636719 C 169.890625 33.828125 169.289062 33.023438 169.289062 33.023438 C 164.304688 33.097656 164.917969 34.460938 165.441406 35.863281 C 165.695312 36.5625 165.917969 37.273438 165.445312 37.851562 C 165.75 37.769531 166.058594 37.683594 166.371094 37.605469 C 167.691406 37.25 169.011719 36.894531 170.003906 36.632812 Z M 170.003906 36.632812 " fill-opacity="1" fill-rule="nonzero"/></g><path fill="#967259" d="M 165.433594 37.863281 C 165.4375 37.859375 165.441406 37.855469 165.445312 37.851562 C 164.449219 38.121094 163.503906 38.390625 162.765625 38.648438 C 161.789062 38.960938 161.140625 39.171875 161.140625 39.171875 C 162.449219 39.035156 163.394531 38.847656 164.078125 38.613281 C 164.765625 38.398438 165.191406 38.15625 165.433594 37.863281 Z M 165.433594 37.863281 " fill-opacity="1" fill-rule="nonzero"/><path fill="#967259" d="M 249.15625 287.035156 C 248.863281 287.449219 248.433594 287.917969 247.945312 288.402344 C 248.457031 288.246094 248.953125 288.054688 249.421875 287.773438 Z M 249.15625 287.035156 " fill-opacity="1" fill-rule="nonzero"/><path fill="#967259" d="M 248.46875 285.183594 L 249.15625 287.035156 C 249.753906 286.128906 249.78125 285.433594 248.46875 285.183594 Z M 248.46875 285.183594 " fill-opacity="1" fill-rule="nonzero"/><path fill="#967259" d="M 231.554688 293.628906 C 230.199219 295.019531 228.761719 296.289062 228.761719 296.289062 C 230.003906 296.046875 232.082031 295.421875 233.492188 294.5 C 234.90625 293.582031 235.628906 292.382812 234.238281 290.90625 C 234.238281 290.90625 232.898438 292.265625 231.554688 293.628906 Z M 231.554688 293.628906 " fill-opacity="1" fill-rule="nonzero"/><path fill="#967259" d="M 273.203125 246.980469 L 271.976562 246.136719 C 272.058594 246.671875 272.347656 247.042969 273.203125 246.980469 Z M 273.203125 246.980469 " fill-opacity="1" fill-rule="nonzero"/><path fill="#967259" d="M 64.894531 116.027344 C 64.792969 115.746094 64.636719 115.464844 64.40625 115.167969 C 64.40625 115.167969 64.59375 115.503906 64.894531 116.027344 Z M 64.894531 116.027344 " fill-opacity="1" fill-rule="nonzero"/><path fill="#967259" d="M 181.964844 296.960938 L 181.816406 296.75 C 181.800781 296.835938 181.855469 296.90625 181.964844 296.960938 Z M 181.964844 296.960938 " fill-opacity="1" fill-rule="nonzero"/><path fill="#967259" d="M 252.421875 61.105469 C 252.769531 60.757812 253.003906 60.519531 253.003906 60.519531 C 252.714844 60.667969 252.535156 60.875 252.421875 61.105469 Z M 252.421875 61.105469 " fill-opacity="1" fill-rule="nonzero"/><path fill="#967259" d="M 306.835938 199.640625 C 306.757812 199.648438 306.6875 199.648438 306.609375 199.652344 C 306.601562 199.769531 306.597656 199.886719 306.59375 200.003906 C 306.675781 199.882812 306.75 199.765625 306.835938 199.640625 Z M 306.835938 199.640625 " fill-opacity="1" fill-rule="nonzero"/><path fill="#967259" d="M 305.214844 210.933594 C 305.761719 207.632812 306.347656 203.636719 306.585938 200.191406 C 306.589844 200.128906 306.589844 200.070312 306.59375 200.003906 C 305.429688 201.757812 304.910156 203.214844 304.863281 204.835938 C 304.820312 206.566406 305.101562 208.445312 305.214844 210.933594 Z M 305.214844 210.933594 " fill-opacity="1" fill-rule="nonzero"/><path fill="#967259" d="M 295.304688 237.898438 C 295.566406 238.113281 295.863281 238.324219 296.210938 238.539062 C 296.164062 237.75 295.816406 237.660156 295.304688 237.898438 Z M 295.304688 237.898438 " fill-opacity="1" fill-rule="nonzero"/><path fill="#967259" d="M 287.851562 236.703125 C 287.851562 236.703125 288.765625 235.414062 289.632812 234.089844 C 290.472656 232.746094 291.308594 231.398438 291.308594 231.398438 C 292.40625 232.933594 291.730469 234.78125 290.910156 236.410156 C 290.109375 238.058594 289.328125 239.570312 290.433594 240.738281 C 291.777344 241.144531 294.046875 238.488281 295.304688 237.898438 C 293.101562 236.105469 293.75 234.308594 294.175781 232.847656 C 294.648438 231.21875 294.789062 230.070312 290.300781 229.886719 C 290.101562 230.273438 289.90625 230.667969 289.714844 231.09375 C 289.058594 232.585938 288.472656 234.363281 287.851562 236.703125 Z M 287.851562 236.703125 " fill-opacity="1" fill-rule="nonzero"/><path fill="#967259" d="M 294.882812 217.394531 C 294.65625 219.792969 294.230469 221.644531 293.707031 223.195312 C 293.292969 224.257812 292.84375 225.171875 292.382812 226.046875 C 292.882812 225.769531 293.410156 225.691406 293.949219 225.617188 C 295.347656 225.410156 296.941406 225.179688 298.0625 220.921875 C 298.0625 220.921875 297.269531 220.03125 296.480469 219.140625 C 295.683594 218.269531 294.882812 217.394531 294.882812 217.394531 Z M 294.882812 217.394531 " fill-opacity="1" fill-rule="nonzero"/><path fill="#967259" d="M 290.183594 229.882812 C 290.222656 229.882812 290.261719 229.886719 290.300781 229.886719 C 290.800781 228.929688 291.308594 228.066406 291.769531 227.183594 C 291.976562 226.808594 292.179688 226.429688 292.382812 226.046875 C 292.226562 226.132812 292.078125 226.234375 291.929688 226.363281 C 291.28125 226.910156 290.78125 227.953125 290.183594 229.882812 Z M 290.183594 229.882812 " fill-opacity="1" fill-rule="nonzero"/><path fill="#967259" d="M 272.660156 260.140625 C 273.222656 259.539062 273.757812 258.882812 274.257812 258.175781 C 274.257812 258.175781 274.230469 258.167969 274.191406 258.15625 C 273.238281 258.875 272.273438 259.648438 271.335938 260.476562 C 270.316406 261.328125 269.371094 262.265625 268.492188 263.234375 C 269.285156 262.789062 270.054688 262.289062 270.808594 261.730469 C 271.445312 261.25 272.066406 260.71875 272.660156 260.140625 Z M 272.660156 260.140625 " fill-opacity="1" fill-rule="nonzero"/><path fill="#967259" d="M 278.277344 255.402344 C 278.789062 255.191406 279.308594 254.910156 279.800781 254.5625 C 279.355469 254.785156 278.835938 255.074219 278.277344 255.402344 Z M 278.277344 255.402344 " fill-opacity="1" fill-rule="nonzero"/><path fill="#967259" d="M 275.820312 255.777344 C 274.742188 255.550781 274.253906 254.707031 274.847656 252.949219 C 274.847656 252.949219 276.058594 252.917969 277.273438 252.886719 C 278.5 252.835938 279.726562 252.785156 279.726562 252.785156 C 279.726562 252.785156 279.714844 252.179688 279.699219 251.273438 C 279.6875 250.382812 279.625 249.167969 279.53125 247.960938 C 279.363281 245.554688 279.140625 243.230469 279.140625 243.230469 C 279.1875 244.933594 278.585938 246.34375 277.757812 247.542969 C 276.945312 248.753906 275.78125 249.671875 274.863281 250.566406 C 273.023438 252.355469 271.765625 253.785156 274.246094 256.417969 C 274.246094 256.417969 273.289062 256.621094 272.332031 256.824219 C 271.386719 257.011719 270.4375 257.203125 270.4375 257.203125 C 270.4375 257.203125 271.390625 257.449219 272.34375 257.695312 C 273.15625 257.898438 273.964844 258.101562 274.191406 258.15625 C 275.65625 257.054688 277.074219 256.113281 278.277344 255.402344 C 277.382812 255.773438 276.507812 255.921875 275.820312 255.777344 Z M 275.820312 255.777344 " fill-opacity="1" fill-rule="nonzero"/><path fill="#967259" d="M 263.664062 271.296875 C 262.863281 272.085938 262.066406 272.875 262.066406 272.875 C 261.886719 272.992188 261.773438 273.074219 261.710938 273.128906 C 261.6875 273.15625 261.667969 273.183594 261.648438 273.207031 C 261.75 273.316406 265.6875 271.148438 264.839844 270.125 C 264.816406 270.15625 264.789062 270.179688 264.761719 270.214844 C 264.460938 270.507812 264.0625 270.902344 263.664062 271.296875 Z M 263.664062 271.296875 " fill-opacity="1" fill-rule="nonzero"/><path fill="#967259" d="M 286.519531 243.207031 C 285.691406 244.226562 285.15625 245.03125 284.835938 245.679688 C 284.503906 246.320312 284.371094 246.789062 284.40625 247.171875 C 284.40625 247.175781 284.410156 247.179688 284.410156 247.1875 C 284.921875 246.292969 285.398438 245.433594 285.742188 244.726562 C 286.207031 243.816406 286.519531 243.207031 286.519531 243.207031 Z M 286.519531 243.207031 " fill-opacity="1" fill-rule="nonzero"/><path fill="#967259" d="M 285.816406 248.589844 C 285.140625 248.277344 284.480469 247.929688 284.410156 247.1875 C 284.253906 247.460938 284.09375 247.738281 283.929688 248.019531 C 283.246094 249.203125 282.5625 250.386719 282.046875 251.277344 C 281.496094 252.144531 281.128906 252.71875 281.128906 252.71875 C 281.128906 252.71875 282.121094 252.878906 283.113281 253.035156 C 284.109375 253.179688 285.101562 253.324219 285.101562 253.324219 C 288.570312 249.742188 287.175781 249.214844 285.816406 248.589844 Z M 285.816406 248.589844 " fill-opacity="1" fill-rule="nonzero"/><path fill="#967259" d="M 49.210938 130.246094 C 49.125 129.746094 49.097656 129.109375 49.097656 128.421875 C 48.847656 128.894531 48.632812 129.382812 48.5 129.914062 Z M 49.210938 130.246094 " fill-opacity="1" fill-rule="nonzero"/><path fill="#967259" d="M 51.003906 131.070312 L 49.210938 130.246094 C 49.429688 131.308594 49.898438 131.820312 51.003906 131.070312 Z M 51.003906 131.070312 " fill-opacity="1" fill-rule="nonzero"/><g clip-path="url(#ab07143c95)"><path fill="#967259" d="M 54.863281 122.957031 C 56.582031 121.640625 57.261719 120.480469 54.625 118.414062 C 54.625 118.414062 53.824219 119.824219 53.019531 121.238281 C 52.621094 121.945312 52.222656 122.65625 51.921875 123.1875 C 51.621094 123.71875 51.433594 124.078125 51.433594 124.078125 C 48.96875 122.808594 47.746094 122.167969 49.871094 118.617188 C 48.429688 119.007812 48.210938 123.019531 47.917969 125.144531 L 48.792969 123.871094 C 49.171875 125.027344 49.082031 126.859375 49.097656 128.421875 C 50.449219 125.828125 53.109375 124.253906 54.863281 122.957031 Z M 54.863281 122.957031 " fill-opacity="1" fill-rule="nonzero"/></g><path fill="#967259" d="M 57.023438 116.949219 C 57.023438 116.949219 57.011719 115.035156 57 113.125 C 56.972656 111.179688 57.09375 109.265625 57.09375 109.265625 C 56.386719 110.316406 55.359375 112.226562 55.015625 113.878906 C 54.660156 115.527344 54.996094 116.886719 57.023438 116.949219 Z M 57.023438 116.949219 " fill-opacity="1" fill-rule="nonzero"/><path fill="#967259" d="M 64.355469 111.363281 C 65.058594 110.292969 65.800781 109.332031 65.777344 108.082031 C 64.015625 109.199219 64.058594 108.496094 64.570312 107.277344 C 65.09375 106.066406 66.070312 104.347656 66.066406 103.40625 C 59.929688 108.183594 65.875 107.320312 64.355469 111.363281 Z M 64.355469 111.363281 " fill-opacity="1" fill-rule="nonzero"/><path fill="#967259" d="M 64.355469 111.363281 C 64.039062 111.863281 63.730469 112.398438 63.558594 113.003906 C 63.957031 112.371094 64.179688 111.851562 64.355469 111.363281 Z M 64.355469 111.363281 " fill-opacity="1" fill-rule="nonzero"/><path fill="#967259" d="M 89.710938 75.664062 L 89.964844 75.707031 C 89.914062 75.636719 89.824219 75.625 89.710938 75.664062 Z M 89.710938 75.664062 " fill-opacity="1" fill-rule="nonzero"/><g clip-path="url(#30754418a2)"><path fill="#967259" d="M 312.992188 160.179688 C 312.425781 158.648438 311.78125 156.839844 311.347656 155.101562 C 310.921875 153.359375 310.835938 151.652344 311.597656 150.234375 L 308.894531 150.746094 C 308.878906 150.558594 308.859375 150.371094 308.84375 150.183594 C 308.613281 146.953125 308.464844 144.910156 308.480469 143.523438 C 308.457031 142.070312 308.542969 141.355469 308.675781 140.703125 C 308.800781 140.058594 308.949219 139.480469 308.972656 138.304688 C 308.988281 137.71875 308.96875 136.976562 308.894531 136.003906 C 308.789062 135.039062 308.621094 133.839844 308.363281 132.320312 C 308.363281 132.320312 307.34375 131.726562 306.320312 131.136719 C 306.035156 130.972656 305.757812 130.816406 305.496094 130.667969 C 305.320312 130.003906 305.144531 129.34375 304.960938 128.683594 C 304.976562 128.667969 304.988281 128.652344 305.007812 128.636719 C 304.894531 128.304688 304.769531 127.976562 304.652344 127.644531 C 302.851562 121.507812 300.550781 115.582031 297.792969 109.917969 C 297.359375 108.484375 296.707031 107.027344 295.671875 105.660156 C 295.671875 105.660156 295.695312 105.75 295.726562 105.878906 C 294.34375 103.308594 292.867188 100.789062 291.296875 98.34375 C 291.464844 98.203125 291.625 98.035156 291.765625 97.800781 C 290.742188 96.289062 289.539062 94.96875 288.234375 93.804688 C 278.785156 80.515625 266.554688 69.347656 252.398438 61.140625 C 252.40625 61.128906 252.414062 61.117188 252.421875 61.105469 C 252.410156 61.117188 252.402344 61.128906 252.390625 61.136719 C 251.261719 60.484375 250.117188 59.851562 248.964844 59.234375 C 249.386719 58.761719 249.855469 58.277344 250.328125 57.789062 C 252.753906 55.289062 255.261719 52.601562 250.351562 50.515625 C 252.230469 52.816406 251.34375 54.839844 249.683594 56.023438 C 248.007812 57.226562 245.628906 57.527344 244.089844 56.417969 C 244.113281 56.515625 244.117188 56.644531 244.109375 56.789062 C 243.433594 56.46875 242.757812 56.152344 242.074219 55.84375 C 243.699219 55.292969 243.996094 54.261719 243.40625 53.207031 C 242.777344 52.070312 241.15625 50.902344 239.253906 50.527344 C 240.03125 50.890625 240.671875 51.324219 241.15625 51.804688 C 241.636719 52.304688 241.972656 52.835938 242.164062 53.351562 C 242.515625 54.277344 242.386719 55.144531 241.871094 55.753906 C 240.84375 55.296875 239.808594 54.855469 238.765625 54.425781 C 238.542969 54.261719 238.324219 54.105469 238.097656 53.941406 C 238.429688 53.804688 238.792969 53.5625 239.214844 53.164062 C 240.355469 51.253906 238.417969 49.132812 235.644531 47.097656 C 234.253906 46.117188 232.675781 45.109375 231.207031 44.132812 C 229.726562 43.214844 228.363281 42.285156 227.441406 41.328125 C 225.457031 41.0625 224.371094 41.40625 223.597656 41.960938 C 222.820312 42.535156 222.328125 43.417969 221.484375 44.507812 C 221.28125 43.210938 220.265625 42.101562 219.199219 41.097656 C 218.132812 40.085938 217.039062 39.074219 216.746094 37.769531 C 214.550781 38.222656 212.722656 38.238281 211.046875 37.964844 C 209.371094 37.683594 207.855469 37.09375 206.3125 36.632812 C 204.773438 36.152344 203.222656 35.652344 201.523438 35.523438 C 201.007812 35.5 200.46875 35.519531 199.921875 35.566406 C 199.921875 35.578125 199.886719 35.582031 199.824219 35.578125 C 198.609375 35.6875 197.328125 35.976562 195.949219 36.574219 C 195.589844 36.09375 195.460938 35.742188 195.484375 35.480469 C 195.136719 35.492188 194.902344 35.5 194.902344 35.5 L 195.375 36.039062 C 193.859375 36.929688 192.050781 37.417969 190.113281 37.617188 C 189.4375 37.691406 188.738281 37.738281 188.035156 37.773438 C 188.652344 37.945312 189.257812 38.144531 189.847656 38.386719 C 190.257812 38.5625 190.644531 38.761719 191.039062 38.949219 C 189.929688 39.050781 188.535156 39.234375 187.140625 39.394531 C 185.15625 39.605469 183.195312 39.910156 182.070312 40.097656 C 181.886719 39.785156 181.644531 39.375 181.402344 38.960938 C 180.96875 38.242188 180.539062 37.527344 180.417969 37.328125 C 178.605469 37.070312 176.941406 36.730469 175.585938 36.382812 C 176.476562 36.753906 177.203125 37.269531 177.582031 37.855469 C 177.863281 38.285156 177.949219 38.714844 177.804688 39.136719 C 177.503906 39.152344 177.199219 39.175781 176.894531 39.1875 C 176.25 39.238281 175.601562 39.257812 174.957031 39.289062 C 174.8125 39.152344 174.667969 39.011719 174.515625 38.871094 C 173.613281 38.039062 172.710938 37.207031 172.710938 37.207031 C 172.710938 37.207031 172.292969 37.640625 171.664062 38.296875 C 171.339844 38.628906 170.964844 39.03125 170.570312 39.472656 C 168.359375 39.554688 166.171875 39.695312 164.039062 39.777344 C 161.273438 39.976562 158.601562 40.257812 156.128906 40.6875 C 154.074219 41.113281 152.164062 41.621094 150.453125 42.300781 C 151.199219 41.632812 152.222656 41.203125 153.238281 40.867188 C 154.964844 40.273438 156.585938 39.753906 156.628906 38.144531 C 155.96875 36.90625 152.484375 37.179688 151.179688 36.703125 C 151.46875 39.53125 149.742188 40.34375 148.410156 41.074219 C 147.0625 41.816406 146.195312 42.476562 148.3125 45.058594 C 148.171875 45.5 148.1875 45.863281 148.511719 46.078125 C 147.683594 46.328125 146.890625 46.539062 146.113281 46.785156 C 145.703125 46.90625 145.289062 47.027344 144.875 47.15625 C 145.042969 47.203125 145.222656 47.242188 145.421875 47.253906 C 146.203125 47.316406 147.203125 46.988281 148.761719 46.195312 C 149.292969 46.367188 150.265625 46.320312 151.960938 45.933594 C 149.960938 47.910156 147.359375 48.585938 144.515625 48.625 C 143.4375 48.695312 142.324219 48.667969 141.210938 48.617188 C 141.453125 48.488281 141.695312 48.351562 141.925781 48.238281 C 142.964844 47.777344 143.933594 47.449219 144.875 47.15625 C 144.328125 47 143.898438 46.683594 143.464844 46.355469 C 142.328125 45.511719 141.039062 44.542969 137.242188 46.761719 C 137.242188 46.761719 137.195312 47.539062 137.140625 48.460938 C 136.78125 48.457031 136.414062 48.4375 136.070312 48.449219 C 136.070312 48.449219 136.25 48.140625 136.527344 47.675781 C 136.800781 47.207031 137.175781 46.605469 137.558594 46.007812 C 138.339844 44.808594 139.121094 43.609375 139.121094 43.609375 C 132.234375 45.972656 124.328125 47.574219 116.835938 50.28125 C 109.371094 52.941406 102.34375 56.617188 97.878906 61.890625 L 101.457031 62.9375 C 100.859375 63.441406 100.257812 63.925781 99.648438 64.394531 C 99.046875 64.878906 98.453125 65.363281 97.847656 65.824219 C 96.640625 66.75 95.414062 67.617188 94.179688 68.445312 C 91.785156 70.183594 89.351562 71.734375 87.144531 73.300781 C 84.972656 74.910156 82.875 76.367188 81.242188 77.953125 C 79.597656 79.527344 78.277344 81.078125 77.492188 82.667969 C 82.296875 81.207031 81.648438 82.84375 79.796875 85.101562 C 79.355469 85.6875 78.835938 86.3125 78.300781 86.949219 C 78.121094 87.03125 77.933594 87.101562 77.742188 87.160156 L 77.984375 87.324219 C 76.449219 89.132812 74.875 90.949219 74.683594 91.972656 C 75.554688 91.273438 76.4375 90.496094 77.320312 89.667969 C 77.875 89.136719 78.414062 88.566406 78.949219 87.984375 L 80.019531 88.71875 C 77.679688 91.421875 76.253906 93.089844 75.207031 94.109375 C 74.195312 95.15625 73.628906 95.601562 73.078125 95.96875 C 72.527344 96.335938 72.015625 96.640625 71.167969 97.453125 C 70.746094 97.859375 70.234375 98.394531 69.597656 99.136719 C 68.992188 99.894531 68.261719 100.859375 67.371094 102.117188 C 67.371094 102.117188 67.675781 103.257812 67.980469 104.398438 C 68.136719 104.964844 68.292969 105.527344 68.40625 105.949219 C 68.539062 106.375 68.625 106.65625 68.625 106.65625 C 68.875 107.050781 69.160156 104.296875 69.886719 101.628906 C 70.5625 98.945312 71.894531 96.5 73.65625 97.519531 C 73.523438 98.511719 73.324219 99.515625 73.082031 100.527344 C 72.859375 101.546875 72.621094 102.59375 72.34375 103.644531 C 72.066406 104.691406 71.761719 105.75 71.449219 106.816406 C 71.144531 107.886719 70.886719 108.988281 70.609375 110.078125 C 70.335938 111.175781 70.070312 112.273438 69.832031 113.371094 C 69.609375 114.472656 69.457031 115.589844 69.320312 116.691406 C 69.191406 117.796875 69.105469 118.894531 69.082031 119.972656 C 69.066406 121.058594 69.164062 122.144531 69.308594 123.195312 C 69.308594 123.195312 68 121.253906 66.773438 119.242188 C 66.050781 118.039062 65.34375 116.816406 64.890625 116.027344 C 65.460938 117.589844 64.15625 118.96875 62.53125 120.832031 C 61.554688 121.921875 60.429688 123.164062 59.453125 124.65625 C 58.546875 126.160156 57.792969 127.914062 57.515625 129.953125 C 57.515625 129.953125 58.46875 128.371094 59.425781 126.785156 C 59.90625 126.003906 60.367188 125.21875 60.75 124.644531 C 61.136719 124.074219 61.390625 123.691406 61.390625 123.691406 C 62.472656 125.496094 62.863281 127.570312 62.722656 129.808594 C 62.554688 132.042969 62.089844 134.496094 61.515625 137.046875 C 61.367188 137.6875 61.222656 138.332031 61.074219 138.980469 C 60.953125 139.628906 60.832031 140.289062 60.714844 140.945312 C 60.484375 142.261719 60.285156 143.582031 60.152344 144.894531 C 59.917969 147.511719 60.109375 150.082031 60.859375 152.363281 C 61.070312 149.929688 61.296875 147.496094 63.257812 147.277344 C 63.429688 147.492188 63.558594 147.75 63.667969 148.023438 C 63.660156 148.9375 63.71875 149.113281 63.929688 148.996094 C 64.082031 149.972656 64.011719 151.132812 63.804688 152.347656 C 63.484375 154.410156 62.882812 156.632812 62.257812 158.292969 C 62 158.242188 61.761719 158.164062 61.535156 158.070312 C 61.273438 156.433594 61.386719 154.828125 62.511719 152.609375 C 62.511719 152.609375 61.53125 152.769531 60.554688 152.929688 C 59.574219 153.101562 58.597656 153.273438 58.597656 153.273438 C 58.621094 153.652344 58.65625 154.019531 58.695312 154.390625 C 58.695312 154.386719 58.691406 154.382812 58.691406 154.378906 C 57.941406 152.3125 57.832031 149.699219 57.652344 147.1875 C 57.429688 142.179688 57.652344 137.566406 54.730469 138.277344 C 54.21875 140.929688 54.242188 143.5625 54.667969 146.078125 C 55.144531 148.597656 55.871094 150.988281 56.664062 153.199219 C 57.5 155.417969 58.316406 157.460938 58.8125 159.339844 C 59.347656 161.21875 59.613281 162.933594 59.210938 164.53125 C 59.210938 164.53125 58.164062 163.265625 57.117188 162 C 56.59375 161.351562 56.074219 160.703125 55.679688 160.214844 C 55.28125 159.726562 55.046875 159.394531 55.046875 159.394531 C 55.046875 159.394531 55.113281 159.714844 55.25 160.195312 C 55.382812 160.675781 55.5625 161.3125 55.738281 161.949219 C 56.097656 163.21875 56.457031 164.484375 56.457031 164.484375 L 56.714844 162.980469 C 58.390625 164.023438 58.300781 165.621094 58.042969 167.492188 C 57.804688 169.355469 57.316406 171.507812 58 173.472656 C 58 173.472656 56.925781 172.894531 55.851562 172.316406 C 54.777344 171.714844 53.703125 171.113281 53.703125 171.113281 C 53.703125 171.113281 53.730469 171.59375 53.777344 172.316406 C 53.835938 173.039062 53.859375 174.003906 53.980469 174.960938 C 54.195312 176.882812 54.40625 178.800781 54.40625 178.800781 L 55.390625 177.691406 C 58.714844 189.714844 60.691406 199.910156 62.292969 211.382812 C 62.292969 211.382812 62.246094 210.957031 62.167969 210.316406 C 62.101562 209.675781 61.980469 208.839844 61.933594 207.976562 C 61.8125 206.273438 61.695312 204.570312 61.695312 204.570312 C 62.660156 204.835938 63.953125 208.136719 64.566406 211.152344 C 65.585938 210.265625 65.097656 208.042969 64.859375 205.949219 C 64.628906 204.222656 64.441406 202.652344 65.035156 202.136719 C 65.570312 205.15625 66.222656 208.160156 67 211.136719 C 67.042969 211.839844 67.066406 212.527344 67.082031 213.222656 C 67.117188 214.816406 67.21875 216.398438 67.410156 218.28125 C 67.511719 219.21875 67.644531 220.230469 67.847656 221.335938 C 68.078125 222.425781 68.375 223.613281 68.757812 224.925781 C 69.46875 225.011719 70.007812 223.835938 70.667969 222.660156 C 71.414062 224.636719 72.226562 226.59375 73.085938 228.53125 C 72.433594 228.988281 71.414062 228.953125 69.640625 227.933594 C 72.625 230.625 72.722656 232.191406 72.917969 233.550781 C 73.113281 234.882812 73.46875 235.96875 76.84375 237.375 C 76.265625 236.882812 75.839844 235.832031 75.425781 234.785156 C 75.519531 234.488281 75.632812 234.285156 75.761719 234.132812 C 77.171875 236.890625 78.699219 239.605469 80.347656 242.261719 C 80.386719 244.527344 80.832031 246.792969 82.707031 249.746094 C 82.707031 249.746094 83.289062 250.246094 84.160156 251 C 85.035156 251.746094 86.261719 252.683594 87.457031 253.632812 C 88.371094 254.371094 89.300781 255.078125 90.101562 255.675781 C 90.722656 256.410156 91.351562 257.140625 91.996094 257.863281 C 91.6875 258.113281 91.273438 258.183594 91.273438 258.183594 C 92.402344 259.09375 93.484375 260.054688 94.554688 261.03125 C 95.65625 261.976562 96.730469 262.949219 97.785156 263.9375 C 97.957031 264.105469 98.136719 264.261719 98.308594 264.429688 C 98.5625 264.671875 98.816406 264.914062 99.070312 265.15625 C 99.148438 265.699219 99.488281 266.226562 100.261719 266.65625 C 100.578125 266.816406 100.855469 266.941406 101.109375 267.03125 C 101.136719 267.058594 101.167969 267.085938 101.195312 267.109375 C 102.164062 267.984375 103.132812 268.851562 104.066406 269.714844 C 106.160156 271.535156 108.25 273.226562 110.300781 274.671875 C 111.042969 275.160156 111.78125 275.613281 112.511719 276.042969 C 115.46875 278.085938 118.503906 279.980469 121.601562 281.710938 C 121.601562 281.738281 121.601562 281.757812 121.601562 281.78125 C 121.859375 281.90625 122.132812 282.019531 122.390625 282.140625 C 123.707031 282.863281 125.03125 283.5625 126.367188 284.226562 C 125.289062 284.453125 124.386719 284.644531 124.386719 284.644531 C 130.925781 287.851562 137.648438 292.3125 144.855469 295.703125 C 152.011719 299.105469 159.582031 301.480469 166.460938 300.914062 L 164.671875 297.640625 C 165.449219 297.703125 166.21875 297.789062 166.980469 297.886719 C 167.746094 297.96875 168.507812 298.046875 169.261719 298.152344 C 170.769531 298.351562 172.253906 298.605469 173.707031 298.894531 C 176.628906 299.363281 179.445312 299.984375 182.113281 300.441406 C 184.785156 300.839844 187.300781 301.292969 189.574219 301.328125 C 191.847656 301.382812 193.875 301.21875 195.550781 300.648438 C 191.125 298.28125 192.738281 297.585938 195.644531 297.296875 C 198.566406 296.882812 202.894531 296.894531 204.113281 296.058594 C 203.003906 295.9375 201.832031 295.859375 200.625 295.820312 C 199.417969 295.796875 198.175781 295.839844 196.929688 295.929688 C 194.441406 296.128906 191.933594 296.296875 189.683594 296.589844 C 185.789062 296.980469 182.667969 297.296875 181.964844 296.949219 L 182.238281 297.332031 C 182.238281 297.332031 181.21875 297.4375 179.6875 297.496094 C 178.152344 297.5625 176.097656 297.671875 174.027344 297.730469 C 171.953125 297.71875 169.882812 297.710938 168.328125 297.699219 C 167.542969 297.699219 166.894531 297.679688 166.4375 297.648438 C 165.984375 297.625 165.722656 297.609375 165.722656 297.609375 L 166.246094 295.609375 C 179.703125 296.886719 193.339844 295.769531 206.472656 292.261719 C 206.476562 292.273438 206.480469 292.289062 206.484375 292.300781 C 206.484375 292.289062 206.484375 292.273438 206.484375 292.257812 C 207.742188 291.921875 208.996094 291.558594 210.25 291.179688 C 210.285156 291.8125 210.292969 292.484375 210.304688 293.164062 C 210.359375 296.652344 210.480469 300.324219 215.429688 298.328125 C 212.472656 298.03125 211.671875 295.96875 212.007812 293.957031 C 212.347656 291.921875 213.8125 290.023438 215.6875 289.71875 C 215.601562 289.667969 215.507812 289.578125 215.410156 289.46875 C 216.113281 289.21875 216.816406 288.964844 217.515625 288.695312 C 216.753906 290.234375 217.273438 291.175781 218.4375 291.507812 C 219.40625 291.785156 220.816406 291.648438 222.152344 291.066406 C 223.714844 291.492188 223.210938 291.925781 222.074219 292.390625 C 220.847656 292.878906 218.941406 293.402344 218.28125 294.070312 C 224.929688 294.902344 222.269531 292.339844 223.933594 290.476562 C 225.121094 290.675781 226.617188 290.582031 228.242188 290.332031 C 229.921875 290.039062 231.746094 289.636719 233.472656 289.285156 C 234.886719 288.953125 236.238281 288.695312 237.417969 288.628906 C 236.964844 289.125 236.785156 290.019531 236.96875 291.554688 C 236.96875 291.554688 238.535156 291.125 240.097656 290.695312 C 240.882812 290.476562 241.664062 290.257812 242.253906 290.09375 C 242.839844 289.929688 243.230469 289.808594 243.230469 289.8125 C 244.074219 292.449219 244.484375 293.769531 240.476562 294.78125 C 241.769531 295.523438 244.757812 292.84375 246.464844 291.546875 L 244.949219 291.824219 C 245.5 290.738281 246.855469 289.507812 247.945312 288.390625 C 245.160156 289.269531 242.164062 288.5 240.011719 288.171875 C 239.535156 288.109375 239.101562 288.082031 238.71875 288.105469 C 239.84375 287.105469 240.253906 286.242188 240.390625 285.433594 C 240.53125 284.476562 240.257812 283.503906 240.082031 282.136719 C 241.144531 282.910156 242.644531 282.972656 244.109375 282.929688 C 245.578125 282.890625 247.066406 282.832031 248.195312 283.550781 C 249.425781 281.671875 250.707031 280.367188 252.085938 279.371094 C 253.46875 278.390625 254.957031 277.734375 256.375 276.964844 C 257.800781 276.214844 259.253906 275.46875 260.542969 274.359375 C 260.925781 274.007812 261.292969 273.617188 261.648438 273.195312 C 261.640625 273.1875 261.660156 273.160156 261.710938 273.117188 C 262.488281 272.179688 263.191406 271.070312 263.742188 269.671875 C 264.339844 269.757812 264.679688 269.914062 264.84375 270.113281 C 265.082031 269.859375 265.238281 269.691406 265.238281 269.691406 L 264.523438 269.644531 C 264.96875 267.941406 265.898438 266.316406 267.132812 264.800781 C 267.558594 264.269531 268.019531 263.742188 268.492188 263.222656 C 267.933594 263.535156 267.363281 263.824219 266.773438 264.070312 C 263.890625 265.226562 261 265.894531 258.140625 266.210938 C 256.402344 266.433594 254.773438 266.609375 253.242188 266.804688 C 254.601562 265.578125 255.929688 264.3125 257.242188 263.007812 C 258.027344 263.5625 258.789062 264.09375 258.789062 264.09375 C 260.023438 262.683594 261.074219 261.21875 262.027344 259.714844 C 262.9375 258.253906 263.699219 256.675781 264.46875 255.109375 C 266.984375 252.09375 269.320312 248.976562 271.476562 245.773438 L 271.980469 246.128906 C 271.925781 245.753906 272.660156 244.785156 273.855469 243.265625 C 274.460938 242.511719 275.199219 241.644531 276.046875 240.679688 C 276.859375 239.683594 277.765625 238.578125 278.746094 237.375 C 278.773438 237.339844 278.808594 237.296875 278.835938 237.261719 C 287.242188 228.207031 294.195312 217.785156 299.320312 206.359375 C 299.355469 206.332031 299.390625 206.308594 299.429688 206.285156 C 300.019531 205.875 300.59375 205.4375 300.96875 205.53125 C 301.335938 205.621094 301.511719 206.246094 301.109375 207.917969 C 301.160156 208.882812 301.710938 206.40625 301.773438 203.554688 C 301.828125 202.546875 301.8125 201.5 301.730469 200.546875 C 302.0625 199.679688 302.382812 198.808594 302.695312 197.929688 C 303.261719 199.132812 304.417969 199.804688 306.609375 199.644531 C 306.742188 196.433594 306.59375 193.792969 305.730469 192.792969 L 306.507812 193.375 C 306.507812 193.375 306.050781 191.855469 305.238281 189.816406 C 305.742188 187.980469 306.195312 186.128906 306.605469 184.257812 C 307.558594 185.949219 308.683594 186.964844 310.335938 186.101562 C 310.335938 186.101562 309.632812 184.617188 308.929688 183.132812 C 308.585938 182.398438 308.199219 181.671875 307.910156 181.128906 C 307.621094 180.589844 307.429688 180.226562 307.429688 180.226562 C 310.761719 182.25 309.855469 174.535156 312.355469 175.972656 C 312.355469 175.972656 312.316406 175.722656 312.222656 175.28125 C 312.128906 174.839844 311.996094 174.210938 311.839844 173.457031 C 311.496094 171.953125 311.148438 169.945312 310.601562 167.972656 C 310.101562 166.089844 309.628906 164.234375 309.210938 162.800781 C 309.234375 161.84375 309.25 160.882812 309.25 159.921875 L 311.59375 159.28125 C 311.59375 159.28125 311.335938 160.300781 311.074219 161.316406 C 310.941406 161.820312 310.808594 162.324219 310.707031 162.703125 C 310.597656 163.082031 310.523438 163.332031 310.523438 163.332031 C 312.492188 164.25 313.378906 164.257812 313.644531 163.613281 C 313.929688 162.980469 313.550781 161.710938 312.992188 160.179688 Z M 81.617188 112.269531 C 81.984375 111.1875 82.34375 110.144531 82.601562 109.089844 C 82.660156 108.855469 82.710938 108.621094 82.765625 108.386719 C 83.683594 107.773438 84.527344 108.050781 85.222656 110.1875 C 85.222656 110.1875 83.886719 111.417969 82.550781 112.648438 C 81.847656 113.355469 81.15625 114.058594 80.664062 114.554688 C 81.03125 113.792969 81.355469 113.03125 81.617188 112.269531 Z M 83.46875 105.242188 C 83.644531 104.496094 83.816406 103.753906 84 103.039062 C 84.144531 102.488281 84.300781 101.953125 84.46875 101.429688 C 84.742188 103.207031 84.296875 104.371094 83.46875 105.242188 Z M 89.722656 106.808594 C 90.234375 106.753906 90.832031 106.847656 91.53125 107.140625 C 90.878906 107.882812 90.238281 108.636719 89.605469 109.390625 C 89.613281 108.925781 89.625 108.453125 89.652344 107.980469 C 89.675781 107.585938 89.699219 107.195312 89.722656 106.808594 Z M 73.894531 132.539062 C 74.078125 131.171875 74.054688 129.644531 73.972656 128.058594 C 73.921875 126.050781 73.742188 123.953125 73.667969 122.0625 C 73.664062 121.828125 73.671875 121.609375 73.671875 121.378906 C 73.949219 120.757812 74.25 120.222656 74.566406 119.835938 C 74.265625 119.929688 73.980469 120.0625 73.703125 120.210938 C 73.761719 119.125 73.886719 118.164062 74.136719 117.449219 C 74.339844 118.070312 75.234375 116.808594 76.324219 115.410156 C 77.402344 115.792969 78.511719 114.234375 79.625 112.445312 C 80.089844 112.519531 80.339844 113.242188 80.230469 114.992188 C 80.078125 115.144531 79.988281 115.234375 79.988281 115.234375 C 80.066406 115.234375 80.136719 115.226562 80.210938 115.222656 C 80.203125 115.324219 80.199219 115.414062 80.191406 115.519531 C 80.246094 115.417969 80.285156 115.316406 80.339844 115.214844 C 82.210938 115.109375 83.417969 114.441406 84.347656 113.542969 C 85.34375 112.59375 85.960938 111.335938 86.542969 110.144531 C 87.058594 109.082031 87.578125 108.097656 88.277344 107.472656 C 88.25 107.550781 88.222656 107.617188 88.195312 107.695312 C 87.882812 108.617188 87.605469 109.625 87.304688 110.617188 C 87.035156 111.519531 86.769531 112.414062 86.511719 113.269531 C 86.039062 113.890625 85.570312 114.511719 85.113281 115.140625 C 84.980469 115.183594 84.863281 115.214844 84.773438 115.214844 C 84.765625 115.351562 84.785156 115.460938 84.808594 115.5625 C 80.789062 121.125 77.332031 126.96875 74.4375 133.015625 C 74.238281 132.875 74.0625 132.710938 73.894531 132.539062 Z M 306.929688 134.441406 C 308.253906 136.664062 309.023438 139.144531 307.519531 139.886719 C 307.113281 137.59375 306.640625 135.324219 306.101562 133.082031 C 306.378906 133.519531 306.660156 133.972656 306.929688 134.441406 Z M 238.015625 54.117188 C 237.945312 54.089844 237.875 54.058594 237.800781 54.03125 C 237.832031 54.023438 237.863281 54.019531 237.894531 54.011719 C 237.9375 54.046875 237.976562 54.082031 238.015625 54.117188 Z M 235.1875 51.769531 C 235.050781 51.664062 234.914062 51.566406 234.777344 51.460938 C 234.777344 51.460938 234.949219 51.59375 235.21875 51.808594 C 235.308594 51.941406 235.398438 52.074219 235.488281 52.214844 C 235.777344 52.664062 236.066406 53.125 236.390625 53.476562 C 235.054688 52.960938 233.710938 52.464844 232.351562 52 C 233.640625 50.136719 234.457031 50.730469 235.1875 51.769531 Z M 181.660156 40.167969 C 181.316406 40.226562 181.113281 40.261719 181.113281 40.261719 C 180.96875 40.082031 180.929688 39.878906 180.9375 39.683594 C 181.191406 39.855469 181.441406 40.019531 181.660156 40.167969 Z M 179.152344 38.519531 C 179.152344 38.519531 179.460938 38.71875 179.886719 38.996094 C 179.628906 39.019531 179.375 39.042969 179.117188 39.0625 C 179.132812 38.890625 179.148438 38.710938 179.152344 38.519531 Z M 118.144531 54.0625 C 117.890625 54.273438 117.644531 54.480469 117.398438 54.6875 C 117.339844 54.628906 117.296875 54.574219 117.234375 54.511719 C 117.542969 54.328125 117.847656 54.1875 118.144531 54.0625 Z M 110.902344 59.613281 C 111.636719 59.386719 112.363281 59.191406 113.066406 59.003906 C 112.414062 59.847656 112 60.605469 111.953125 61.214844 L 111.816406 60.253906 C 111.816406 60.253906 111.019531 61.734375 110.121094 63.84375 C 109.210938 65.945312 108.347656 68.820312 107.960938 71.40625 C 108.5625 69.722656 109.765625 68.15625 111.113281 66.710938 C 112.515625 65.320312 114.058594 64.046875 115.304688 62.824219 C 117.277344 61.019531 118.566406 59.308594 117.550781 57.378906 C 118.324219 56.8125 118.515625 56.109375 117.8125 55.164062 C 118.988281 54.800781 119.917969 54.300781 120.730469 53.609375 C 122.023438 53.71875 123.070312 54.347656 123.765625 55.152344 C 123.3125 55.527344 122.832031 55.949219 122.355469 56.40625 C 120.238281 58.308594 118.257812 60.816406 118.730469 61.84375 C 119.695312 61.65625 120.589844 60.011719 121.742188 58.882812 C 122.875 57.726562 124.136719 56.945312 125.535156 58.328125 C 128.59375 56.605469 127.398438 56.417969 125.988281 56.144531 C 126.089844 56.074219 126.183594 56.011719 126.296875 55.9375 C 127.304688 55.296875 128.644531 54.445312 129.984375 53.589844 C 131.328125 52.714844 132.71875 51.925781 133.765625 51.335938 C 134.816406 50.742188 135.515625 50.347656 135.515625 50.347656 C 137.347656 51.519531 136.0625 56.242188 134.640625 56.390625 C 133.488281 56.726562 132.253906 57.410156 130.960938 58.167969 C 129.671875 58.9375 128.300781 59.730469 126.9375 60.492188 C 124.203125 62.035156 121.335938 63.054688 118.347656 62.242188 C 117.105469 64.210938 118.4375 64.800781 119.128906 65.5 C 119.839844 66.222656 119.878906 66.953125 116.40625 69.351562 C 111.402344 70.132812 106.703125 72.386719 102.421875 75.179688 C 102.578125 73.574219 103.511719 71.445312 104.316406 69.371094 C 105.546875 66.363281 106.5625 63.5 103.972656 62.6875 C 103.972656 62.6875 103.421875 64.238281 102.871094 65.785156 C 102.761719 66.082031 102.660156 66.378906 102.566406 66.671875 C 101.269531 63.011719 106.226562 60.910156 110.902344 59.613281 Z M 98.824219 65.480469 C 99.378906 64.925781 99.851562 64.476562 100.195312 64.179688 C 100.535156 63.875 100.730469 63.703125 100.730469 63.703125 L 102.53125 66.78125 C 102.394531 67.195312 102.273438 67.589844 102.175781 67.921875 C 102 68.507812 101.878906 68.898438 101.878906 68.898438 C 100.996094 65.289062 96.597656 70.636719 95.53125 68.738281 C 96.742188 67.539062 97.910156 66.382812 98.824219 65.480469 Z M 89.25 75.585938 C 89.25 75.585938 89.894531 74.789062 90.9375 73.664062 C 91.898438 72.613281 93.152344 71.222656 94.460938 69.824219 C 94.3125 70.054688 94.15625 70.292969 93.980469 70.5625 C 93.160156 71.871094 91.988281 73.535156 90.980469 75.316406 C 89.957031 77.085938 88.917969 78.828125 88.195312 80.164062 C 87.496094 81.515625 87.027344 82.414062 87.027344 82.414062 L 84.738281 81.101562 C 85.121094 80.632812 85.492188 80.179688 85.847656 79.746094 C 85.882812 79.726562 85.914062 79.707031 85.949219 79.6875 C 86.398438 79.425781 86.847656 79.164062 87.183594 78.964844 C 87.53125 78.777344 87.761719 78.652344 87.761719 78.652344 C 87.648438 78.351562 87.542969 78.089844 87.441406 77.847656 C 88.496094 76.621094 89.300781 75.804688 89.714844 75.664062 Z M 67.246094 137.367188 C 69.300781 131.109375 68.769531 139.621094 71.191406 137.28125 C 71.761719 136.988281 72.207031 136.601562 72.566406 136.140625 C 72.597656 136.425781 72.609375 136.71875 72.609375 137.019531 C 71.746094 139.015625 70.949219 141.035156 70.207031 143.070312 C 69.441406 143.40625 68.765625 143.128906 68.242188 142.398438 C 67.882812 141.890625 67.59375 141.167969 67.402344 140.304688 C 67.222656 139.441406 67.183594 138.441406 67.246094 137.367188 Z M 145.976562 291.8125 C 146.507812 291.960938 147.035156 292.113281 147.566406 292.257812 C 147.566406 292.320312 147.558594 292.367188 147.5625 292.433594 C 146.957031 292.273438 146.433594 292.0625 145.976562 291.8125 Z M 157.957031 294.523438 C 160.4375 294.945312 162.929688 295.273438 165.425781 295.53125 C 163.683594 296.710938 160.816406 295.898438 157.957031 294.523438 Z M 221.96875 290.816406 C 221.640625 290.875 221.320312 290.914062 221.015625 290.917969 C 220.324219 290.902344 219.714844 290.765625 219.210938 290.535156 C 218.308594 290.128906 217.789062 289.425781 217.722656 288.625 C 219.09375 288.101562 220.460938 287.546875 221.816406 286.96875 C 221.589844 287.308594 221.449219 287.820312 221.429688 288.582031 C 221.632812 289.386719 222.164062 289.910156 222.921875 290.222656 C 222.578125 290.367188 222.257812 290.558594 221.96875 290.816406 Z M 224.734375 286.613281 C 224.214844 286.5 223.683594 286.378906 223.207031 286.359375 C 224.511719 285.78125 225.816406 285.175781 227.105469 284.542969 C 227.566406 287.078125 226.214844 286.9375 224.734375 286.613281 Z M 224.734375 286.613281 " fill-opacity="1" fill-rule="nonzero"/></g><path fill="#967259" d="M 206.484375 292.3125 C 206.484375 292.804688 206.484375 293.140625 206.484375 293.140625 C 206.582031 292.828125 206.566406 292.558594 206.484375 292.3125 Z M 206.484375 292.3125 " fill-opacity="1" fill-rule="nonzero"/><g clip-path="url(#812e464440)"><path fill="#000000" d="M 277.957031 105.925781 C 277.710938 101.605469 279.296875 96.777344 276.421875 93.019531 C 271.390625 91.632812 266.375 90.230469 261.328125 88.996094 C 261.0625 82.746094 261.558594 76.480469 261.097656 70.25 C 260.371094 66 255.191406 67.480469 252.1875 67.449219 C 226.152344 68.75 202.164062 83.472656 186.851562 104.160156 C 170.386719 81.742188 143.394531 66.292969 115.128906 67.445312 C 114.570312 67.921875 113.429688 68.878906 112.851562 69.355469 C 111.992188 75.835938 112.804688 82.449219 112.457031 88.976562 C 106.734375 91.285156 98.269531 90.921875 95.546875 97.519531 C 96.621094 100.125 96.871094 102.941406 96.753906 105.746094 C 96.503906 138.8125 96.984375 171.871094 96.519531 204.925781 C 96.089844 207.414062 96.554688 211.820312 100.132812 211.042969 C 111.699219 206.839844 124.15625 205.324219 136.429688 206.03125 C 153.109375 207.335938 170.433594 211.242188 184.144531 221.234375 C 185.480469 221.234375 188.136719 221.234375 189.453125 221.25 C 197.042969 215.429688 206.25 212.265625 215.339844 209.640625 C 234.828125 204.1875 255.863281 204.695312 275.015625 211.242188 C 279.105469 210.550781 278 206.066406 278.035156 203.09375 C 277.859375 170.71875 278.007812 138.320312 277.957031 105.925781 Z M 103.714844 202.089844 C 103.816406 167.945312 103.699219 133.785156 103.765625 99.644531 C 106.683594 98.605469 109.621094 97.566406 112.558594 96.542969 C 112.492188 123.8125 112.511719 151.082031 112.542969 178.347656 C 112.164062 183.3125 118.367188 182.4375 121.601562 182.75 C 140.90625 183.558594 158.476562 193.367188 172.5 206.109375 C 150.851562 197.375 126.203125 195.394531 103.714844 202.089844 Z M 197.953125 207.859375 C 208.660156 197.390625 221.003906 187.996094 235.671875 183.953125 C 243.230469 181.398438 251.230469 181.152344 259.082031 180.410156 C 261.621094 180.097656 261.097656 176.933594 261.277344 175.148438 C 261.261719 149.066406 261.246094 122.988281 261.261719 96.90625 C 264.410156 97.859375 267.5625 98.816406 270.730469 99.742188 C 271.175781 133.882812 270.746094 168.042969 270.945312 202.1875 C 246.941406 195.542969 220.726562 197.917969 197.953125 207.859375 Z M 197.953125 207.859375 " fill-opacity="1" fill-rule="nonzero"/></g><path stroke-linecap="butt" transform="matrix(0.0414725, 0, 0, 0.0412363, 235.156777, 162.581209)" fill-opacity="1" fill="#967259" fill-rule="evenodd" stroke-linejoin="miter" d="M -1158.536528 131.976681 C -1003.972496 138.22876 -839.989572 8.261308 -645.395246 -393.197918 C -1214.296373 -211.982368 -1656.607581 -329.540391 -1612.056218 -407.123002 C -1581.350627 -460.549855 -1340.886293 -540.216492 -684.672029 -433.078601 C -684.672029 -433.078601 -888.967815 -449.561353 -1111.159497 -463.107523 C -1368.106893 -478.73772 -1558.368529 -456.855445 -1572.873623 -395.945043 C -1578.713337 -319.783359 -943.032259 -302.163865 -644.924301 -394.334659 C -720.746389 -134.399757 -892.452805 198.854976 -1180.482548 181.235482 C -1362.926502 167.026212 -1522.765114 -75.952295 -1632.777782 -294.585588 C -1454.289763 -18.35739 -1318.092572 123.451119 -1158.536528 131.976681 Z M -1158.536528 131.976681 " stroke="#000000" stroke-width="1" stroke-opacity="1" stroke-miterlimit="4"/><path stroke-linecap="butt" transform="matrix(0.0414725, 0, 0, 0.0412363, 235.156777, 162.581209)" fill-opacity="1" fill="#967259" fill-rule="evenodd" stroke-linejoin="miter" d="M -673.18098 -282.649801 C -673.18098 -282.649801 -599.713616 -416.785305 -482.919344 -404.281148 C -310.365228 -385.714369 -608.567375 15.271215 -835.845259 12.239904 C -798.82901 1.346131 -754.93697 -13.620967 -683.541762 -66.763634 C -596.322814 -131.652631 -395.323641 -324.519782 -533.216232 -356.159089 C -584.549198 -368.000147 -673.18098 -282.649801 -673.18098 -282.649801 Z M -673.18098 -282.649801 " stroke="#000000" stroke-width="1" stroke-opacity="1" stroke-miterlimit="4"/><path stroke-linecap="butt" transform="matrix(0.0300652, 0, 0, 0.0327659, 220.773446, 160.575004)" fill-opacity="1" fill="#967259" fill-rule="evenodd" stroke-linejoin="miter" d="M -1486.093743 150.070044 C -1486.093743 150.070044 -2494.18949 266.544899 -1589.644756 460.629919 C -389.388471 718.1383 13.122242 354.765363 14.421502 305.40959 C 19.488616 102.025656 -682.111724 132.664385 -682.111724 132.664385 C -477.478292 157.699922 -466.434583 137.433059 -230.099209 186.908048 C 6.106239 236.383038 -319.228437 524.530147 -816.715048 503.071115 C -1696.963623 465.160159 -2299.950137 308.270794 -1486.093743 150.070044 Z M -1486.093743 150.070044 " stroke="#000000" stroke-width="1.132" stroke-opacity="1" stroke-miterlimit="4"/><g clip-path="url(#21b96249bb)"><path fill="#967259" d="M 185.160156 109.929688 C 183.617188 113.175781 183.128906 121.738281 188.863281 125.855469 C 194.601562 129.96875 185.027344 147.613281 184.597656 147.597656 C 184.164062 147.585938 190.789062 132.023438 188.128906 128.316406 C 185.472656 124.605469 185.160156 109.929688 185.160156 109.929688 Z M 185.160156 109.929688 " fill-opacity="1" fill-rule="evenodd"/></g><g clip-path="url(#73253b38fb)"><path stroke-linecap="butt" transform="matrix(0.0260462, 0, 0, 0.0246157, 215.235929, 157.350107)" fill="none" stroke-linejoin="miter" d="M -1154.709349 -1926.426948 C -1213.949073 -1794.556279 -1232.695821 -1446.709701 -1012.534014 -1279.451356 C -792.222233 -1112.351699 -1159.808465 -395.552889 -1176.305603 -396.187645 C -1192.952715 -396.663713 -938.59684 -1028.881216 -1040.729122 -1179.477202 C -1142.711431 -1330.231878 -1154.709349 -1926.426948 -1154.709349 -1926.426948 Z M -1154.709349 -1926.426948 " stroke="#000000" stroke-width="1" stroke-opacity="1" stroke-miterlimit="4"/></g><path stroke-linecap="butt" transform="matrix(0.0260462, 0, 0, 0.0246157, 215.235929, 157.350107)" fill-opacity="1" fill="#967259" fill-rule="evenodd" stroke-linejoin="miter" d="M -1290.435804 -1752.027592 C -1349.675527 -1637.454038 -1368.422275 -1335.627309 -1148.110494 -1190.426753 C -927.798713 -1045.384886 -1359.423836 -395.3942 -1376.070948 -396.028956 C -1392.71806 -396.505024 -1074.173321 -973.022641 -1176.305603 -1103.782486 C -1278.437885 -1234.383642 -1290.435804 -1752.027592 -1290.435804 -1752.027592 Z M -1290.435804 -1752.027592 " stroke="#000000" stroke-width="0.932" stroke-opacity="1" stroke-miterlimit="4"/><path stroke-linecap="butt" transform="matrix(0.0260462, 0, 0, 0.0246157, 215.235929, 157.350107)" fill-opacity="1" fill="#967259" fill-rule="evenodd" stroke-linejoin="miter" d="M -878.607247 -1703.468717 C -937.696996 -1593.814527 -1020.632609 -1296.431093 -800.320828 -1157.419413 C -579.859073 -1018.407733 -1011.63417 -395.552889 -1028.281282 -396.028956 C -1044.77842 -396.505024 -726.383654 -948.901893 -828.515936 -1074.266308 C -930.648219 -1199.472033 -878.607247 -1703.468717 -878.607247 -1703.468717 Z M -878.607247 -1703.468717 " stroke="#000000" stroke-width="0.912" stroke-opacity="1" stroke-miterlimit="4"/><g fill="#000000" fill-opacity="0.502"><g transform="translate(88.838152, 245.336052)"><g><path d="M 19.28125 9.5625 L 24.5625 -3.640625 L 24.421875 -3.71875 L 13.8125 6.6875 L 10.890625 5.25 L 12.734375 -9.515625 L 12.609375 -9.578125 L 5.3125 2.625 L 0.421875 0.203125 L 12.96875 -20.28125 L 18.15625 -17.703125 L 16.796875 -2.984375 L 27.671875 -12.984375 L 32.875 -10.40625 L 24.15625 11.984375 Z M 19.28125 9.5625 "/></g></g></g><g fill="#000000" fill-opacity="0.502"><g transform="translate(114.471844, 257.655497)"><g><path d="M 3.546875 -0.65625 C 2.453125 -2.582031 2.269531 -4.632812 3 -6.8125 C 3.738281 -9 5.160156 -10.519531 7.265625 -11.375 C 9.367188 -12.226562 11.617188 -12.253906 14.015625 -11.453125 C 16.378906 -10.648438 18.128906 -9.269531 19.265625 -7.3125 C 20.410156 -5.351562 20.617188 -3.289062 19.890625 -1.125 C 19.171875 1.03125 17.78125 2.539062 15.71875 3.40625 C 13.664062 4.28125 11.421875 4.304688 8.984375 3.484375 C 6.453125 2.640625 4.640625 1.257812 3.546875 -0.65625 Z M 9.921875 -7.15625 C 9.085938 -6.75 8.503906 -6.054688 8.171875 -5.078125 C 7.847656 -4.109375 7.878906 -3.210938 8.265625 -2.390625 C 8.660156 -1.578125 9.351562 -1.003906 10.34375 -0.671875 C 11.300781 -0.347656 12.191406 -0.394531 13.015625 -0.8125 C 13.835938 -1.238281 14.410156 -1.925781 14.734375 -2.875 C 15.054688 -3.851562 15.003906 -4.753906 14.578125 -5.578125 C 14.160156 -6.410156 13.492188 -6.984375 12.578125 -7.296875 C 11.648438 -7.609375 10.765625 -7.5625 9.921875 -7.15625 Z M 9.921875 -7.15625 "/></g></g></g><g fill="#000000" fill-opacity="0.502"><g transform="translate(133.3678, 263.852674)"><g><path d="M 11.90625 -8.65625 C 10.957031 -8.875 10.066406 -8.710938 9.234375 -8.171875 C 8.398438 -7.628906 7.875 -6.867188 7.65625 -5.890625 C 7.414062 -4.890625 7.550781 -3.960938 8.0625 -3.109375 C 8.570312 -2.253906 9.300781 -1.71875 10.25 -1.5 C 10.707031 -1.394531 11.148438 -1.351562 11.578125 -1.375 C 12.015625 -1.394531 12.335938 -1.4375 12.546875 -1.5 L 12.84375 -1.625 L 13.734375 2.234375 C 13.578125 2.316406 13.367188 2.398438 13.109375 2.484375 C 12.847656 2.578125 12.265625 2.644531 11.359375 2.6875 C 10.460938 2.738281 9.535156 2.65625 8.578125 2.4375 C 6.453125 1.9375 4.753906 0.753906 3.484375 -1.109375 C 2.222656 -2.972656 1.835938 -4.953125 2.328125 -7.046875 C 2.816406 -9.148438 4.039062 -10.773438 6 -11.921875 C 7.957031 -13.078125 10 -13.40625 12.125 -12.90625 C 13.082031 -12.6875 13.941406 -12.367188 14.703125 -11.953125 C 15.460938 -11.535156 15.984375 -11.175781 16.265625 -10.875 L 16.671875 -10.4375 L 14.1875 -7.40625 C 13.664062 -8.007812 12.90625 -8.425781 11.90625 -8.65625 Z M 11.90625 -8.65625 "/></g></g></g><g fill="#000000" fill-opacity="0.502"><g transform="translate(147.931792, 267.309641)"><g><path d="M 1.71875 0.21875 L 4.953125 -24.5 L 10.046875 -23.828125 L 8.546875 -12.3125 L 8.609375 -12.296875 C 10.097656 -13.453125 11.585938 -13.929688 13.078125 -13.734375 C 13.804688 -13.640625 14.515625 -13.445312 15.203125 -13.15625 C 15.898438 -12.875 16.550781 -12.488281 17.15625 -12 C 17.769531 -11.507812 18.234375 -10.867188 18.546875 -10.078125 C 18.867188 -9.285156 18.960938 -8.398438 18.828125 -7.421875 L 17.5625 2.296875 L 12.484375 1.640625 L 13.578125 -6.6875 C 13.671875 -7.457031 13.507812 -8.164062 13.09375 -8.8125 C 12.6875 -9.457031 12.09375 -9.832031 11.3125 -9.9375 C 10.539062 -10.03125 9.800781 -9.820312 9.09375 -9.3125 C 8.394531 -8.800781 8 -8.175781 7.90625 -7.4375 L 6.8125 0.890625 Z M 1.71875 0.21875 "/></g></g></g><g fill="#000000" fill-opacity="0.502"><g transform="translate(167.784855, 269.879378)"><g><path d="M 2.78125 -1.796875 C 1.414062 -3.335938 0.753906 -5.207031 0.796875 -7.40625 C 0.835938 -9.613281 1.5625 -11.46875 2.96875 -12.96875 C 4.382812 -14.476562 6.164062 -15.210938 8.3125 -15.171875 C 10.28125 -15.140625 11.894531 -14.492188 13.15625 -13.234375 L 13.1875 -14.65625 L 18.3125 -14.578125 L 18.0625 0.296875 L 12.984375 0.21875 L 13.015625 -1.46875 L 12.96875 -1.46875 C 11.664062 -0.0703125 10.03125 0.609375 8.0625 0.578125 C 5.914062 0.535156 4.15625 -0.253906 2.78125 -1.796875 Z M 7.296875 -9.828125 C 6.617188 -9.179688 6.269531 -8.34375 6.25 -7.3125 C 6.226562 -6.289062 6.53125 -5.445312 7.15625 -4.78125 C 7.78125 -4.125 8.613281 -3.789062 9.65625 -3.78125 C 10.664062 -3.757812 11.5 -4.070312 12.15625 -4.71875 C 12.8125 -5.375 13.148438 -6.203125 13.171875 -7.203125 C 13.191406 -8.234375 12.875 -9.082031 12.21875 -9.75 C 11.5625 -10.414062 10.75 -10.757812 9.78125 -10.78125 C 8.800781 -10.789062 7.972656 -10.472656 7.296875 -9.828125 Z M 7.296875 -9.828125 "/></g></g></g><g fill="#000000" fill-opacity="0.502"><g transform="translate(188.179012, 269.958371)"><g/></g></g><g fill="#000000" fill-opacity="0.502"><g transform="translate(196.637461, 269.569299)"><g><path d="M -2.390625 -18.984375 L -3.03125 -23.734375 L 13.625 -26.03125 L 14.265625 -21.28125 L 8.640625 -20.515625 L 11.265625 -1.5625 L 5.859375 -0.8125 L 3.234375 -19.765625 Z M -2.390625 -18.984375 "/></g></g></g><g fill="#000000" fill-opacity="0.502"><g transform="translate(214.281538, 266.949093)"><g><path d="M -2.71875 -23.109375 C -2.269531 -23.816406 -1.632812 -24.257812 -0.8125 -24.4375 C 0 -24.613281 0.757812 -24.472656 1.46875 -24.015625 C 2.1875 -23.554688 2.628906 -22.921875 2.796875 -22.109375 C 2.972656 -21.296875 2.832031 -20.535156 2.375 -19.828125 C 1.925781 -19.117188 1.289062 -18.675781 0.46875 -18.5 C -0.34375 -18.320312 -1.101562 -18.460938 -1.8125 -18.921875 C -2.53125 -19.378906 -2.972656 -20.015625 -3.140625 -20.828125 C -3.316406 -21.640625 -3.175781 -22.398438 -2.71875 -23.109375 Z M -1.453125 -14.890625 L 1.6875 -0.359375 L 6.71875 -1.453125 L 3.578125 -15.984375 Z M -1.453125 -14.890625 "/></g></g></g><g fill="#000000" fill-opacity="0.502"><g transform="translate(223.271863, 265.032203)"><g><path d="M -1.484375 -15.03125 L -2.96875 -20.375 L 1.984375 -21.75 L 3.46875 -16.40625 L 6.46875 -17.25 L 7.53125 -13.484375 L 4.53125 -12.640625 L 5.796875 -8.078125 C 6.160156 -6.753906 6.710938 -6.195312 7.453125 -6.40625 C 7.628906 -6.457031 7.8125 -6.550781 8 -6.6875 C 8.1875 -6.820312 8.320312 -6.941406 8.40625 -7.046875 L 8.546875 -7.203125 L 10.890625 -3.5625 C 10.003906 -2.65625 8.882812 -2.015625 7.53125 -1.640625 C 6.59375 -1.378906 5.738281 -1.316406 4.96875 -1.453125 C 4.207031 -1.597656 3.582031 -1.898438 3.09375 -2.359375 C 2.601562 -2.816406 2.195312 -3.320312 1.875 -3.875 C 1.550781 -4.4375 1.296875 -5.066406 1.109375 -5.765625 L -0.421875 -11.265625 L -2.484375 -10.6875 L -3.546875 -14.453125 Z M -1.484375 -15.03125 "/></g></g></g><g fill="#000000" fill-opacity="0.502"><g transform="translate(234.703985, 261.788804)"><g><path d="M 1.640625 -0.5625 L -6.453125 -24.15625 L -1.59375 -25.828125 L 6.5 -2.234375 Z M 1.640625 -0.5625 "/></g></g></g><g fill="#000000" fill-opacity="0.502"><g transform="translate(243.43728, 258.950454)"><g><path d="M 12.78125 -12.828125 L 2.859375 -8.5625 C 3.273438 -7.59375 3.890625 -7.007812 4.703125 -6.8125 C 5.523438 -6.625 6.300781 -6.6875 7.03125 -7 C 7.789062 -7.332031 8.347656 -7.691406 8.703125 -8.078125 C 9.066406 -8.472656 9.398438 -9.097656 9.703125 -9.953125 L 13.859375 -9.71875 C 13.453125 -6.71875 11.597656 -4.507812 8.296875 -3.09375 C 6.234375 -2.207031 4.164062 -2.148438 2.09375 -2.921875 C 0.0195312 -3.703125 -1.441406 -5.085938 -2.296875 -7.078125 C -3.160156 -9.066406 -3.160156 -11.085938 -2.296875 -13.140625 C -1.441406 -15.203125 0.015625 -16.675781 2.078125 -17.5625 C 4.242188 -18.488281 6.269531 -18.617188 8.15625 -17.953125 C 10.050781 -17.285156 11.5 -15.785156 12.5 -13.453125 C 12.632812 -13.140625 12.726562 -12.929688 12.78125 -12.828125 Z M 1.859375 -11.203125 L 7.0625 -13.4375 C 6.644531 -14.113281 6.128906 -14.546875 5.515625 -14.734375 C 4.898438 -14.929688 4.234375 -14.875 3.515625 -14.5625 C 2.742188 -14.226562 2.210938 -13.753906 1.921875 -13.140625 C 1.640625 -12.535156 1.617188 -11.890625 1.859375 -11.203125 Z M 1.859375 -11.203125 "/></g></g></g><g fill="#000000" fill-opacity="0.502"><g transform="translate(260.086735, 251.676041)"><g><path d="M -0.125 -17.375 C 0.625 -17.78125 1.410156 -18.097656 2.234375 -18.328125 C 3.066406 -18.554688 3.707031 -18.679688 4.15625 -18.703125 L 4.8125 -18.75 L 4.953125 -14.96875 C 3.628906 -14.96875 2.507812 -14.71875 1.59375 -14.21875 C 1.09375 -13.945312 0.765625 -13.695312 0.609375 -13.46875 C 0.453125 -13.238281 0.457031 -12.96875 0.625 -12.65625 C 0.65625 -12.59375 0.703125 -12.53125 0.765625 -12.46875 C 0.828125 -12.40625 0.898438 -12.359375 0.984375 -12.328125 C 1.066406 -12.296875 1.140625 -12.269531 1.203125 -12.25 C 1.265625 -12.238281 1.359375 -12.234375 1.484375 -12.234375 C 1.617188 -12.242188 1.722656 -12.25 1.796875 -12.25 C 1.867188 -12.257812 1.988281 -12.273438 2.15625 -12.296875 C 2.320312 -12.328125 2.441406 -12.34375 2.515625 -12.34375 C 2.597656 -12.351562 2.734375 -12.378906 2.921875 -12.421875 C 3.117188 -12.460938 3.265625 -12.5 3.359375 -12.53125 C 3.953125 -12.664062 4.5 -12.742188 5 -12.765625 C 5.5 -12.796875 6.050781 -12.765625 6.65625 -12.671875 C 7.269531 -12.578125 7.828125 -12.347656 8.328125 -11.984375 C 8.828125 -11.628906 9.25 -11.140625 9.59375 -10.515625 C 11.207031 -7.535156 9.953125 -4.921875 5.828125 -2.671875 C 4.898438 -2.160156 3.9375 -1.820312 2.9375 -1.65625 C 1.9375 -1.488281 1.175781 -1.453125 0.65625 -1.546875 L -0.15625 -1.703125 L 0 -5.765625 C 0.195312 -5.722656 0.445312 -5.679688 0.75 -5.640625 C 1.0625 -5.597656 1.582031 -5.59375 2.3125 -5.625 C 3.039062 -5.664062 3.617188 -5.800781 4.046875 -6.03125 C 4.972656 -6.539062 5.265625 -7.109375 4.921875 -7.734375 C 4.765625 -8.035156 4.523438 -8.195312 4.203125 -8.21875 C 3.878906 -8.25 3.378906 -8.210938 2.703125 -8.109375 C 2.023438 -8.003906 1.476562 -7.953125 1.0625 -7.953125 C 0.0078125 -7.921875 -0.894531 -8.046875 -1.65625 -8.328125 C -2.414062 -8.609375 -3.035156 -9.191406 -3.515625 -10.078125 C -4.234375 -11.390625 -4.285156 -12.695312 -3.671875 -14 C -3.054688 -15.300781 -1.875 -16.425781 -0.125 -17.375 Z M -0.125 -17.375 "/></g></g></g><g fill="#000000" fill-opacity="0.302"><g transform="translate(88.399681, 247.094685)"><g><path d="M 19.28125 9.5625 L 24.5625 -3.640625 L 24.421875 -3.71875 L 13.8125 6.6875 L 10.890625 5.25 L 12.734375 -9.515625 L 12.609375 -9.578125 L 5.3125 2.625 L 0.421875 0.203125 L 12.96875 -20.28125 L 18.15625 -17.703125 L 16.796875 -2.984375 L 27.671875 -12.984375 L 32.875 -10.40625 L 24.15625 11.984375 Z M 19.28125 9.5625 "/></g></g></g><g fill="#000000" fill-opacity="0.302"><g transform="translate(114.033371, 259.41413)"><g><path d="M 3.546875 -0.65625 C 2.453125 -2.582031 2.269531 -4.632812 3 -6.8125 C 3.738281 -9 5.160156 -10.519531 7.265625 -11.375 C 9.367188 -12.226562 11.617188 -12.253906 14.015625 -11.453125 C 16.378906 -10.648438 18.128906 -9.269531 19.265625 -7.3125 C 20.410156 -5.351562 20.617188 -3.289062 19.890625 -1.125 C 19.171875 1.03125 17.78125 2.539062 15.71875 3.40625 C 13.664062 4.28125 11.421875 4.304688 8.984375 3.484375 C 6.453125 2.640625 4.640625 1.257812 3.546875 -0.65625 Z M 9.921875 -7.15625 C 9.085938 -6.75 8.503906 -6.054688 8.171875 -5.078125 C 7.847656 -4.109375 7.878906 -3.210938 8.265625 -2.390625 C 8.660156 -1.578125 9.351562 -1.003906 10.34375 -0.671875 C 11.300781 -0.347656 12.191406 -0.394531 13.015625 -0.8125 C 13.835938 -1.238281 14.410156 -1.925781 14.734375 -2.875 C 15.054688 -3.851562 15.003906 -4.753906 14.578125 -5.578125 C 14.160156 -6.410156 13.492188 -6.984375 12.578125 -7.296875 C 11.648438 -7.609375 10.765625 -7.5625 9.921875 -7.15625 Z M 9.921875 -7.15625 "/></g></g></g><g fill="#000000" fill-opacity="0.302"><g transform="translate(132.92933, 265.611307)"><g><path d="M 11.90625 -8.65625 C 10.957031 -8.875 10.066406 -8.710938 9.234375 -8.171875 C 8.398438 -7.628906 7.875 -6.867188 7.65625 -5.890625 C 7.414062 -4.890625 7.550781 -3.960938 8.0625 -3.109375 C 8.570312 -2.253906 9.300781 -1.71875 10.25 -1.5 C 10.707031 -1.394531 11.148438 -1.351562 11.578125 -1.375 C 12.015625 -1.394531 12.335938 -1.4375 12.546875 -1.5 L 12.84375 -1.625 L 13.734375 2.234375 C 13.578125 2.316406 13.367188 2.398438 13.109375 2.484375 C 12.847656 2.578125 12.265625 2.644531 11.359375 2.6875 C 10.460938 2.738281 9.535156 2.65625 8.578125 2.4375 C 6.453125 1.9375 4.753906 0.753906 3.484375 -1.109375 C 2.222656 -2.972656 1.835938 -4.953125 2.328125 -7.046875 C 2.816406 -9.148438 4.039062 -10.773438 6 -11.921875 C 7.957031 -13.078125 10 -13.40625 12.125 -12.90625 C 13.082031 -12.6875 13.941406 -12.367188 14.703125 -11.953125 C 15.460938 -11.535156 15.984375 -11.175781 16.265625 -10.875 L 16.671875 -10.4375 L 14.1875 -7.40625 C 13.664062 -8.007812 12.90625 -8.425781 11.90625 -8.65625 Z M 11.90625 -8.65625 "/></g></g></g><g fill="#000000" fill-opacity="0.302"><g transform="translate(147.493322, 269.068275)"><g><path d="M 1.71875 0.21875 L 4.953125 -24.5 L 10.046875 -23.828125 L 8.546875 -12.3125 L 8.609375 -12.296875 C 10.097656 -13.453125 11.585938 -13.929688 13.078125 -13.734375 C 13.804688 -13.640625 14.515625 -13.445312 15.203125 -13.15625 C 15.898438 -12.875 16.550781 -12.488281 17.15625 -12 C 17.769531 -11.507812 18.234375 -10.867188 18.546875 -10.078125 C 18.867188 -9.285156 18.960938 -8.398438 18.828125 -7.421875 L 17.5625 2.296875 L 12.484375 1.640625 L 13.578125 -6.6875 C 13.671875 -7.457031 13.507812 -8.164062 13.09375 -8.8125 C 12.6875 -9.457031 12.09375 -9.832031 11.3125 -9.9375 C 10.539062 -10.03125 9.800781 -9.820312 9.09375 -9.3125 C 8.394531 -8.800781 8 -8.175781 7.90625 -7.4375 L 6.8125 0.890625 Z M 1.71875 0.21875 "/></g></g></g><g fill="#000000" fill-opacity="0.302"><g transform="translate(167.346382, 271.637997)"><g><path d="M 2.78125 -1.796875 C 1.414062 -3.335938 0.753906 -5.207031 0.796875 -7.40625 C 0.835938 -9.613281 1.5625 -11.46875 2.96875 -12.96875 C 4.382812 -14.476562 6.164062 -15.210938 8.3125 -15.171875 C 10.28125 -15.140625 11.894531 -14.492188 13.15625 -13.234375 L 13.1875 -14.65625 L 18.3125 -14.578125 L 18.0625 0.296875 L 12.984375 0.21875 L 13.015625 -1.46875 L 12.96875 -1.46875 C 11.664062 -0.0703125 10.03125 0.609375 8.0625 0.578125 C 5.914062 0.535156 4.15625 -0.253906 2.78125 -1.796875 Z M 7.296875 -9.828125 C 6.617188 -9.179688 6.269531 -8.34375 6.25 -7.3125 C 6.226562 -6.289062 6.53125 -5.445312 7.15625 -4.78125 C 7.78125 -4.125 8.613281 -3.789062 9.65625 -3.78125 C 10.664062 -3.757812 11.5 -4.070312 12.15625 -4.71875 C 12.8125 -5.375 13.148438 -6.203125 13.171875 -7.203125 C 13.191406 -8.234375 12.875 -9.082031 12.21875 -9.75 C 11.5625 -10.414062 10.75 -10.757812 9.78125 -10.78125 C 8.800781 -10.789062 7.972656 -10.472656 7.296875 -9.828125 Z M 7.296875 -9.828125 "/></g></g></g><g fill="#000000" fill-opacity="0.302"><g transform="translate(187.740539, 271.717003)"><g/></g></g><g fill="#000000" fill-opacity="0.302"><g transform="translate(196.199002, 271.327944)"><g><path d="M -2.390625 -18.984375 L -3.03125 -23.734375 L 13.625 -26.03125 L 14.265625 -21.28125 L 8.640625 -20.515625 L 11.265625 -1.5625 L 5.859375 -0.8125 L 3.234375 -19.765625 Z M -2.390625 -18.984375 "/></g></g></g><g fill="#000000" fill-opacity="0.302"><g transform="translate(213.843065, 268.707727)"><g><path d="M -2.71875 -23.109375 C -2.269531 -23.816406 -1.632812 -24.257812 -0.8125 -24.4375 C 0 -24.613281 0.757812 -24.472656 1.46875 -24.015625 C 2.1875 -23.554688 2.628906 -22.921875 2.796875 -22.109375 C 2.972656 -21.296875 2.832031 -20.535156 2.375 -19.828125 C 1.925781 -19.117188 1.289062 -18.675781 0.46875 -18.5 C -0.34375 -18.320312 -1.101562 -18.460938 -1.8125 -18.921875 C -2.53125 -19.378906 -2.972656 -20.015625 -3.140625 -20.828125 C -3.316406 -21.640625 -3.175781 -22.398438 -2.71875 -23.109375 Z M -1.453125 -14.890625 L 1.6875 -0.359375 L 6.71875 -1.453125 L 3.578125 -15.984375 Z M -1.453125 -14.890625 "/></g></g></g><g fill="#000000" fill-opacity="0.302"><g transform="translate(222.83339, 266.790836)"><g><path d="M -1.484375 -15.03125 L -2.96875 -20.375 L 1.984375 -21.75 L 3.46875 -16.40625 L 6.46875 -17.25 L 7.53125 -13.484375 L 4.53125 -12.640625 L 5.796875 -8.078125 C 6.160156 -6.753906 6.710938 -6.195312 7.453125 -6.40625 C 7.628906 -6.457031 7.8125 -6.550781 8 -6.6875 C 8.1875 -6.820312 8.320312 -6.941406 8.40625 -7.046875 L 8.546875 -7.203125 L 10.890625 -3.5625 C 10.003906 -2.65625 8.882812 -2.015625 7.53125 -1.640625 C 6.59375 -1.378906 5.738281 -1.316406 4.96875 -1.453125 C 4.207031 -1.597656 3.582031 -1.898438 3.09375 -2.359375 C 2.601562 -2.816406 2.195312 -3.320312 1.875 -3.875 C 1.550781 -4.4375 1.296875 -5.066406 1.109375 -5.765625 L -0.421875 -11.265625 L -2.484375 -10.6875 L -3.546875 -14.453125 Z M -1.484375 -15.03125 "/></g></g></g><g fill="#000000" fill-opacity="0.302"><g transform="translate(234.265515, 263.547438)"><g><path d="M 1.640625 -0.5625 L -6.453125 -24.15625 L -1.59375 -25.828125 L 6.5 -2.234375 Z M 1.640625 -0.5625 "/></g></g></g><g fill="#000000" fill-opacity="0.302"><g transform="translate(242.998807, 260.709088)"><g><path d="M 12.78125 -12.828125 L 2.859375 -8.5625 C 3.273438 -7.59375 3.890625 -7.007812 4.703125 -6.8125 C 5.523438 -6.625 6.300781 -6.6875 7.03125 -7 C 7.789062 -7.332031 8.347656 -7.691406 8.703125 -8.078125 C 9.066406 -8.472656 9.398438 -9.097656 9.703125 -9.953125 L 13.859375 -9.71875 C 13.453125 -6.71875 11.597656 -4.507812 8.296875 -3.09375 C 6.234375 -2.207031 4.164062 -2.148438 2.09375 -2.921875 C 0.0195312 -3.703125 -1.441406 -5.085938 -2.296875 -7.078125 C -3.160156 -9.066406 -3.160156 -11.085938 -2.296875 -13.140625 C -1.441406 -15.203125 0.015625 -16.675781 2.078125 -17.5625 C 4.242188 -18.488281 6.269531 -18.617188 8.15625 -17.953125 C 10.050781 -17.285156 11.5 -15.785156 12.5 -13.453125 C 12.632812 -13.140625 12.726562 -12.929688 12.78125 -12.828125 Z M 1.859375 -11.203125 L 7.0625 -13.4375 C 6.644531 -14.113281 6.128906 -14.546875 5.515625 -14.734375 C 4.898438 -14.929688 4.234375 -14.875 3.515625 -14.5625 C 2.742188 -14.226562 2.210938 -13.753906 1.921875 -13.140625 C 1.640625 -12.535156 1.617188 -11.890625 1.859375 -11.203125 Z M 1.859375 -11.203125 "/></g></g></g><g fill="#000000" fill-opacity="0.302"><g transform="translate(259.648277, 253.434675)"><g><path d="M -0.125 -17.375 C 0.625 -17.78125 1.410156 -18.097656 2.234375 -18.328125 C 3.066406 -18.554688 3.707031 -18.679688 4.15625 -18.703125 L 4.8125 -18.75 L 4.953125 -14.96875 C 3.628906 -14.96875 2.507812 -14.71875 1.59375 -14.21875 C 1.09375 -13.945312 0.765625 -13.695312 0.609375 -13.46875 C 0.453125 -13.238281 0.457031 -12.96875 0.625 -12.65625 C 0.65625 -12.59375 0.703125 -12.53125 0.765625 -12.46875 C 0.828125 -12.40625 0.898438 -12.359375 0.984375 -12.328125 C 1.066406 -12.296875 1.140625 -12.269531 1.203125 -12.25 C 1.265625 -12.238281 1.359375 -12.234375 1.484375 -12.234375 C 1.617188 -12.242188 1.722656 -12.25 1.796875 -12.25 C 1.867188 -12.257812 1.988281 -12.273438 2.15625 -12.296875 C 2.320312 -12.328125 2.441406 -12.34375 2.515625 -12.34375 C 2.597656 -12.351562 2.734375 -12.378906 2.921875 -12.421875 C 3.117188 -12.460938 3.265625 -12.5 3.359375 -12.53125 C 3.953125 -12.664062 4.5 -12.742188 5 -12.765625 C 5.5 -12.796875 6.050781 -12.765625 6.65625 -12.671875 C 7.269531 -12.578125 7.828125 -12.347656 8.328125 -11.984375 C 8.828125 -11.628906 9.25 -11.140625 9.59375 -10.515625 C 11.207031 -7.535156 9.953125 -4.921875 5.828125 -2.671875 C 4.898438 -2.160156 3.9375 -1.820312 2.9375 -1.65625 C 1.9375 -1.488281 1.175781 -1.453125 0.65625 -1.546875 L -0.15625 -1.703125 L 0 -5.765625 C 0.195312 -5.722656 0.445312 -5.679688 0.75 -5.640625 C 1.0625 -5.597656 1.582031 -5.59375 2.3125 -5.625 C 3.039062 -5.664062 3.617188 -5.800781 4.046875 -6.03125 C 4.972656 -6.539062 5.265625 -7.109375 4.921875 -7.734375 C 4.765625 -8.035156 4.523438 -8.195312 4.203125 -8.21875 C 3.878906 -8.25 3.378906 -8.210938 2.703125 -8.109375 C 2.023438 -8.003906 1.476562 -7.953125 1.0625 -7.953125 C 0.0078125 -7.921875 -0.894531 -8.046875 -1.65625 -8.328125 C -2.414062 -8.609375 -3.035156 -9.191406 -3.515625 -10.078125 C -4.234375 -11.390625 -4.285156 -12.695312 -3.671875 -14 C -3.054688 -15.300781 -1.875 -16.425781 -0.125 -17.375 Z M -0.125 -17.375 "/></g></g></g><g fill="#ffffff" fill-opacity="1"><g transform="translate(89.276646, 243.577418)"><g><path d="M 19.28125 9.5625 L 24.5625 -3.640625 L 24.421875 -3.71875 L 13.8125 6.6875 L 10.890625 5.25 L 12.734375 -9.515625 L 12.609375 -9.578125 L 5.3125 2.625 L 0.421875 0.203125 L 12.96875 -20.28125 L 18.15625 -17.703125 L 16.796875 -2.984375 L 27.671875 -12.984375 L 32.875 -10.40625 L 24.15625 11.984375 Z M 19.28125 9.5625 "/></g></g></g><g fill="#ffffff" fill-opacity="1"><g transform="translate(114.910329, 255.896865)"><g><path d="M 3.546875 -0.65625 C 2.453125 -2.582031 2.269531 -4.632812 3 -6.8125 C 3.738281 -9 5.160156 -10.519531 7.265625 -11.375 C 9.367188 -12.226562 11.617188 -12.253906 14.015625 -11.453125 C 16.378906 -10.648438 18.128906 -9.269531 19.265625 -7.3125 C 20.410156 -5.351562 20.617188 -3.289062 19.890625 -1.125 C 19.171875 1.03125 17.78125 2.539062 15.71875 3.40625 C 13.664062 4.28125 11.421875 4.304688 8.984375 3.484375 C 6.453125 2.640625 4.640625 1.257812 3.546875 -0.65625 Z M 9.921875 -7.15625 C 9.085938 -6.75 8.503906 -6.054688 8.171875 -5.078125 C 7.847656 -4.109375 7.878906 -3.210938 8.265625 -2.390625 C 8.660156 -1.578125 9.351562 -1.003906 10.34375 -0.671875 C 11.300781 -0.347656 12.191406 -0.394531 13.015625 -0.8125 C 13.835938 -1.238281 14.410156 -1.925781 14.734375 -2.875 C 15.054688 -3.851562 15.003906 -4.753906 14.578125 -5.578125 C 14.160156 -6.410156 13.492188 -6.984375 12.578125 -7.296875 C 11.648438 -7.609375 10.765625 -7.5625 9.921875 -7.15625 Z M 9.921875 -7.15625 "/></g></g></g><g fill="#ffffff" fill-opacity="1"><g transform="translate(133.806288, 262.094026)"><g><path d="M 11.90625 -8.65625 C 10.957031 -8.875 10.066406 -8.710938 9.234375 -8.171875 C 8.398438 -7.628906 7.875 -6.867188 7.65625 -5.890625 C 7.414062 -4.890625 7.550781 -3.960938 8.0625 -3.109375 C 8.570312 -2.253906 9.300781 -1.71875 10.25 -1.5 C 10.707031 -1.394531 11.148438 -1.351562 11.578125 -1.375 C 12.015625 -1.394531 12.335938 -1.4375 12.546875 -1.5 L 12.84375 -1.625 L 13.734375 2.234375 C 13.578125 2.316406 13.367188 2.398438 13.109375 2.484375 C 12.847656 2.578125 12.265625 2.644531 11.359375 2.6875 C 10.460938 2.738281 9.535156 2.65625 8.578125 2.4375 C 6.453125 1.9375 4.753906 0.753906 3.484375 -1.109375 C 2.222656 -2.972656 1.835938 -4.953125 2.328125 -7.046875 C 2.816406 -9.148438 4.039062 -10.773438 6 -11.921875 C 7.957031 -13.078125 10 -13.40625 12.125 -12.90625 C 13.082031 -12.6875 13.941406 -12.367188 14.703125 -11.953125 C 15.460938 -11.535156 15.984375 -11.175781 16.265625 -10.875 L 16.671875 -10.4375 L 14.1875 -7.40625 C 13.664062 -8.007812 12.90625 -8.425781 11.90625 -8.65625 Z M 11.90625 -8.65625 "/></g></g></g><g fill="#ffffff" fill-opacity="1"><g transform="translate(148.370279, 265.551008)"><g><path d="M 1.71875 0.21875 L 4.953125 -24.5 L 10.046875 -23.828125 L 8.546875 -12.3125 L 8.609375 -12.296875 C 10.097656 -13.453125 11.585938 -13.929688 13.078125 -13.734375 C 13.804688 -13.640625 14.515625 -13.445312 15.203125 -13.15625 C 15.898438 -12.875 16.550781 -12.488281 17.15625 -12 C 17.769531 -11.507812 18.234375 -10.867188 18.546875 -10.078125 C 18.867188 -9.285156 18.960938 -8.398438 18.828125 -7.421875 L 17.5625 2.296875 L 12.484375 1.640625 L 13.578125 -6.6875 C 13.671875 -7.457031 13.507812 -8.164062 13.09375 -8.8125 C 12.6875 -9.457031 12.09375 -9.832031 11.3125 -9.9375 C 10.539062 -10.03125 9.800781 -9.820312 9.09375 -9.3125 C 8.394531 -8.800781 8 -8.175781 7.90625 -7.4375 L 6.8125 0.890625 Z M 1.71875 0.21875 "/></g></g></g><g fill="#ffffff" fill-opacity="1"><g transform="translate(168.22334, 268.120732)"><g><path d="M 2.78125 -1.796875 C 1.414062 -3.335938 0.753906 -5.207031 0.796875 -7.40625 C 0.835938 -9.613281 1.5625 -11.46875 2.96875 -12.96875 C 4.382812 -14.476562 6.164062 -15.210938 8.3125 -15.171875 C 10.28125 -15.140625 11.894531 -14.492188 13.15625 -13.234375 L 13.1875 -14.65625 L 18.3125 -14.578125 L 18.0625 0.296875 L 12.984375 0.21875 L 13.015625 -1.46875 L 12.96875 -1.46875 C 11.664062 -0.0703125 10.03125 0.609375 8.0625 0.578125 C 5.914062 0.535156 4.15625 -0.253906 2.78125 -1.796875 Z M 7.296875 -9.828125 C 6.617188 -9.179688 6.269531 -8.34375 6.25 -7.3125 C 6.226562 -6.289062 6.53125 -5.445312 7.15625 -4.78125 C 7.78125 -4.125 8.613281 -3.789062 9.65625 -3.78125 C 10.664062 -3.757812 11.5 -4.070312 12.15625 -4.71875 C 12.8125 -5.375 13.148438 -6.203125 13.171875 -7.203125 C 13.191406 -8.234375 12.875 -9.082031 12.21875 -9.75 C 11.5625 -10.414062 10.75 -10.757812 9.78125 -10.78125 C 8.800781 -10.789062 7.972656 -10.472656 7.296875 -9.828125 Z M 7.296875 -9.828125 "/></g></g></g><g fill="#ffffff" fill-opacity="1"><g transform="translate(188.617511, 268.199738)"><g/></g></g><g fill="#ffffff" fill-opacity="1"><g transform="translate(197.07596, 267.810665)"><g><path d="M -2.390625 -18.984375 L -3.03125 -23.734375 L 13.625 -26.03125 L 14.265625 -21.28125 L 8.640625 -20.515625 L 11.265625 -1.5625 L 5.859375 -0.8125 L 3.234375 -19.765625 Z M -2.390625 -18.984375 "/></g></g></g><g fill="#ffffff" fill-opacity="1"><g transform="translate(214.720023, 265.19046)"><g><path d="M -2.71875 -23.109375 C -2.269531 -23.816406 -1.632812 -24.257812 -0.8125 -24.4375 C 0 -24.613281 0.757812 -24.472656 1.46875 -24.015625 C 2.1875 -23.554688 2.628906 -22.921875 2.796875 -22.109375 C 2.972656 -21.296875 2.832031 -20.535156 2.375 -19.828125 C 1.925781 -19.117188 1.289062 -18.675781 0.46875 -18.5 C -0.34375 -18.320312 -1.101562 -18.460938 -1.8125 -18.921875 C -2.53125 -19.378906 -2.972656 -20.015625 -3.140625 -20.828125 C -3.316406 -21.640625 -3.175781 -22.398438 -2.71875 -23.109375 Z M -1.453125 -14.890625 L 1.6875 -0.359375 L 6.71875 -1.453125 L 3.578125 -15.984375 Z M -1.453125 -14.890625 "/></g></g></g><g fill="#ffffff" fill-opacity="1"><g transform="translate(223.710347, 263.273557)"><g><path d="M -1.484375 -15.03125 L -2.96875 -20.375 L 1.984375 -21.75 L 3.46875 -16.40625 L 6.46875 -17.25 L 7.53125 -13.484375 L 4.53125 -12.640625 L 5.796875 -8.078125 C 6.160156 -6.753906 6.710938 -6.195312 7.453125 -6.40625 C 7.628906 -6.457031 7.8125 -6.550781 8 -6.6875 C 8.1875 -6.820312 8.320312 -6.941406 8.40625 -7.046875 L 8.546875 -7.203125 L 10.890625 -3.5625 C 10.003906 -2.65625 8.882812 -2.015625 7.53125 -1.640625 C 6.59375 -1.378906 5.738281 -1.316406 4.96875 -1.453125 C 4.207031 -1.597656 3.582031 -1.898438 3.09375 -2.359375 C 2.601562 -2.816406 2.195312 -3.320312 1.875 -3.875 C 1.550781 -4.4375 1.296875 -5.066406 1.109375 -5.765625 L -0.421875 -11.265625 L -2.484375 -10.6875 L -3.546875 -14.453125 Z M -1.484375 -15.03125 "/></g></g></g><g fill="#ffffff" fill-opacity="1"><g transform="translate(235.142487, 260.030159)"><g><path d="M 1.640625 -0.5625 L -6.453125 -24.15625 L -1.59375 -25.828125 L 6.5 -2.234375 Z M 1.640625 -0.5625 "/></g></g></g><g fill="#ffffff" fill-opacity="1"><g transform="translate(243.875765, 257.191821)"><g><path d="M 12.78125 -12.828125 L 2.859375 -8.5625 C 3.273438 -7.59375 3.890625 -7.007812 4.703125 -6.8125 C 5.523438 -6.625 6.300781 -6.6875 7.03125 -7 C 7.789062 -7.332031 8.347656 -7.691406 8.703125 -8.078125 C 9.066406 -8.472656 9.398438 -9.097656 9.703125 -9.953125 L 13.859375 -9.71875 C 13.453125 -6.71875 11.597656 -4.507812 8.296875 -3.09375 C 6.234375 -2.207031 4.164062 -2.148438 2.09375 -2.921875 C 0.0195312 -3.703125 -1.441406 -5.085938 -2.296875 -7.078125 C -3.160156 -9.066406 -3.160156 -11.085938 -2.296875 -13.140625 C -1.441406 -15.203125 0.015625 -16.675781 2.078125 -17.5625 C 4.242188 -18.488281 6.269531 -18.617188 8.15625 -17.953125 C 10.050781 -17.285156 11.5 -15.785156 12.5 -13.453125 C 12.632812 -13.140625 12.726562 -12.929688 12.78125 -12.828125 Z M 1.859375 -11.203125 L 7.0625 -13.4375 C 6.644531 -14.113281 6.128906 -14.546875 5.515625 -14.734375 C 4.898438 -14.929688 4.234375 -14.875 3.515625 -14.5625 C 2.742188 -14.226562 2.210938 -13.753906 1.921875 -13.140625 C 1.640625 -12.535156 1.617188 -11.890625 1.859375 -11.203125 Z M 1.859375 -11.203125 "/></g></g></g><g fill="#ffffff" fill-opacity="1"><g transform="translate(260.52522, 249.917396)"><g><path d="M -0.125 -17.375 C 0.625 -17.78125 1.410156 -18.097656 2.234375 -18.328125 C 3.066406 -18.554688 3.707031 -18.679688 4.15625 -18.703125 L 4.8125 -18.75 L 4.953125 -14.96875 C 3.628906 -14.96875 2.507812 -14.71875 1.59375 -14.21875 C 1.09375 -13.945312 0.765625 -13.695312 0.609375 -13.46875 C 0.453125 -13.238281 0.457031 -12.96875 0.625 -12.65625 C 0.65625 -12.59375 0.703125 -12.53125 0.765625 -12.46875 C 0.828125 -12.40625 0.898438 -12.359375 0.984375 -12.328125 C 1.066406 -12.296875 1.140625 -12.269531 1.203125 -12.25 C 1.265625 -12.238281 1.359375 -12.234375 1.484375 -12.234375 C 1.617188 -12.242188 1.722656 -12.25 1.796875 -12.25 C 1.867188 -12.257812 1.988281 -12.273438 2.15625 -12.296875 C 2.320312 -12.328125 2.441406 -12.34375 2.515625 -12.34375 C 2.597656 -12.351562 2.734375 -12.378906 2.921875 -12.421875 C 3.117188 -12.460938 3.265625 -12.5 3.359375 -12.53125 C 3.953125 -12.664062 4.5 -12.742188 5 -12.765625 C 5.5 -12.796875 6.050781 -12.765625 6.65625 -12.671875 C 7.269531 -12.578125 7.828125 -12.347656 8.328125 -11.984375 C 8.828125 -11.628906 9.25 -11.140625 9.59375 -10.515625 C 11.207031 -7.535156 9.953125 -4.921875 5.828125 -2.671875 C 4.898438 -2.160156 3.9375 -1.820312 2.9375 -1.65625 C 1.9375 -1.488281 1.175781 -1.453125 0.65625 -1.546875 L -0.15625 -1.703125 L 0 -5.765625 C 0.195312 -5.722656 0.445312 -5.679688 0.75 -5.640625 C 1.0625 -5.597656 1.582031 -5.59375 2.3125 -5.625 C 3.039062 -5.664062 3.617188 -5.800781 4.046875 -6.03125 C 4.972656 -6.539062 5.265625 -7.109375 4.921875 -7.734375 C 4.765625 -8.035156 4.523438 -8.195312 4.203125 -8.21875 C 3.878906 -8.25 3.378906 -8.210938 2.703125 -8.109375 C 2.023438 -8.003906 1.476562 -7.953125 1.0625 -7.953125 C 0.0078125 -7.921875 -0.894531 -8.046875 -1.65625 -8.328125 C -2.414062 -8.609375 -3.035156 -9.191406 -3.515625 -10.078125 C -4.234375 -11.390625 -4.285156 -12.695312 -3.671875 -14 C -3.054688 -15.300781 -1.875 -16.425781 -0.125 -17.375 Z M -0.125 -17.375 "/></g></g></g></svg>